<svg width="450" height="181" viewBox="0 0 450 181" fill="none" xmlns="http://www.w3.org/2000/svg">
<path d="M76.325 123.875C76.325 124.308 76.3583 124.625 76.425 124.825C76.4917 125.008 76.6167 125.133 76.8 125.2C77 125.267 77.3167 125.3 77.75 125.3H78.6C79.9 125.3 81.025 124.958 81.975 124.275C82.925 123.575 83.5583 122.633 83.875 121.45C83.875 121.417 83.9083 121.4 83.975 121.4C84.0083 121.4 84.0417 121.417 84.075 121.45C84.125 121.467 84.15 121.483 84.15 121.5C84 123.15 83.925 124.525 83.925 125.625C83.925 125.758 83.8917 125.858 83.825 125.925C83.775 125.975 83.6833 126 83.55 126H71.75C71.7167 126 71.7 125.95 71.7 125.85C71.7 125.75 71.7167 125.7 71.75 125.7C72.2833 125.7 72.6667 125.658 72.9 125.575C73.15 125.492 73.3167 125.333 73.4 125.1C73.5 124.85 73.55 124.475 73.55 123.975V112.4C73.55 111.9 73.5 111.533 73.4 111.3C73.3167 111.067 73.15 110.908 72.9 110.825C72.65 110.725 72.2667 110.675 71.75 110.675C71.7167 110.675 71.7 110.625 71.7 110.525C71.7 110.425 71.7167 110.375 71.75 110.375L73.025 110.4C73.7917 110.433 74.425 110.45 74.925 110.45C75.425 110.45 76.0583 110.433 76.825 110.4L78.1 110.375C78.15 110.375 78.175 110.425 78.175 110.525C78.175 110.625 78.15 110.675 78.1 110.675C77.5833 110.675 77.2 110.725 76.95 110.825C76.7 110.908 76.5333 111.075 76.45 111.325C76.3667 111.558 76.325 111.925 76.325 112.425V123.875ZM90.548 126.325C89.5147 126.325 88.6064 126.092 87.823 125.625C87.0564 125.142 86.4647 124.5 86.048 123.7C85.6314 122.883 85.423 122 85.423 121.05C85.423 119.967 85.698 119.05 86.248 118.3C86.798 117.533 87.498 116.967 88.348 116.6C89.198 116.217 90.073 116.025 90.973 116.025C92.0064 116.025 92.9064 116.267 93.673 116.75C94.4397 117.233 95.023 117.875 95.423 118.675C95.8397 119.458 96.048 120.3 96.048 121.2C96.048 122.2 95.798 123.092 95.298 123.875C94.798 124.642 94.123 125.242 93.273 125.675C92.4397 126.108 91.5314 126.325 90.548 126.325ZM91.298 125.8C91.948 125.8 92.4397 125.483 92.773 124.85C93.123 124.2 93.298 123.275 93.298 122.075C93.298 120.908 93.148 119.908 92.848 119.075C92.548 118.242 92.1564 117.617 91.673 117.2C91.1897 116.767 90.673 116.55 90.123 116.55C88.7897 116.55 88.123 117.742 88.123 120.125C88.123 121.242 88.2647 122.233 88.548 123.1C88.8314 123.95 89.2147 124.617 89.698 125.1C90.1814 125.567 90.7147 125.8 91.298 125.8ZM102.704 126.3C101.604 126.3 100.671 126.067 99.9045 125.6C99.1545 125.117 98.5878 124.5 98.2045 123.75C97.8378 122.983 97.6545 122.183 97.6545 121.35C97.6545 120.3 97.9462 119.383 98.5295 118.6C99.1128 117.8 99.8545 117.192 100.754 116.775C101.671 116.342 102.604 116.125 103.554 116.125C104.354 116.125 105.071 116.292 105.704 116.625C106.354 116.958 106.679 117.417 106.679 118C106.679 118.317 106.554 118.592 106.304 118.825C106.071 119.042 105.738 119.15 105.304 119.15C104.904 119.15 104.588 119.05 104.354 118.85C104.121 118.633 103.929 118.308 103.779 117.875C103.629 117.408 103.479 117.092 103.329 116.925C103.196 116.742 102.946 116.65 102.579 116.65C101.863 116.65 101.288 117.008 100.854 117.725C100.438 118.425 100.229 119.358 100.229 120.525C100.229 121.908 100.538 123.017 101.154 123.85C101.771 124.667 102.754 125.075 104.104 125.075C104.554 125.075 104.938 125.025 105.254 124.925C105.588 124.825 106.004 124.658 106.504 124.425H106.529C106.579 124.425 106.621 124.45 106.654 124.5C106.704 124.55 106.713 124.592 106.679 124.625C106.063 125.192 105.446 125.617 104.829 125.9C104.213 126.167 103.504 126.3 102.704 126.3ZM119.453 124.375C119.503 124.375 119.545 124.417 119.578 124.5C119.628 124.583 119.628 124.633 119.578 124.65L116.128 126.325C116.095 126.342 116.053 126.35 116.003 126.35C115.853 126.35 115.711 126.2 115.578 125.9C115.461 125.6 115.386 125.192 115.353 124.675C114.803 125.192 114.253 125.6 113.703 125.9C113.153 126.183 112.545 126.325 111.878 126.325C111.195 126.325 110.561 126.158 109.978 125.825C109.411 125.475 108.961 124.967 108.628 124.3C108.295 123.633 108.128 122.833 108.128 121.9C108.128 120.717 108.403 119.683 108.953 118.8C109.503 117.9 110.228 117.217 111.128 116.75C112.028 116.283 112.995 116.05 114.028 116.05C114.928 116.05 115.736 116.267 116.453 116.7C116.836 116.533 117.161 116.317 117.428 116.05C117.445 116.033 117.47 116.025 117.503 116.025C117.536 116.025 117.57 116.042 117.603 116.075C117.653 116.092 117.678 116.117 117.678 116.15V123.275C117.678 123.775 117.728 124.133 117.828 124.35C117.945 124.55 118.128 124.65 118.378 124.65C118.595 124.65 118.936 124.558 119.403 124.375H119.453ZM113.153 125C113.82 125 114.545 124.733 115.328 124.2V123.95V118.8C115.328 118.15 115.145 117.617 114.778 117.2C114.428 116.783 113.961 116.575 113.378 116.575C112.545 116.575 111.886 116.992 111.403 117.825C110.936 118.658 110.703 119.733 110.703 121.05C110.703 122.3 110.911 123.275 111.328 123.975C111.761 124.658 112.37 125 113.153 125ZM120.459 126C120.426 126 120.409 125.95 120.409 125.85C120.409 125.75 120.426 125.7 120.459 125.7C120.976 125.7 121.326 125.583 121.509 125.35C121.709 125.1 121.809 124.642 121.809 123.975L121.834 111.275C121.834 110.692 121.776 110.275 121.659 110.025C121.559 109.775 121.376 109.65 121.109 109.65C120.892 109.65 120.576 109.742 120.159 109.925H120.134C120.084 109.925 120.034 109.883 119.984 109.8C119.951 109.7 119.951 109.642 119.984 109.625L123.659 107.9L123.759 107.875C123.842 107.875 123.934 107.917 124.034 108C124.134 108.067 124.184 108.133 124.184 108.2V123.975C124.184 124.642 124.276 125.1 124.459 125.35C124.642 125.583 124.992 125.7 125.509 125.7C125.576 125.7 125.609 125.75 125.609 125.85C125.609 125.95 125.576 126 125.509 126C125.092 126 124.759 125.992 124.509 125.975L122.984 125.95L121.484 125.975C121.234 125.992 120.892 126 120.459 126ZM79.172 167.084C79.172 167.828 79.232 168.368 79.352 168.704C79.472 169.04 79.7 169.268 80.036 169.388C80.396 169.508 80.96 169.568 81.728 169.568C81.8 169.568 81.836 169.64 81.836 169.784C81.836 169.928 81.8 170 81.728 170C80.936 170 80.312 169.988 79.856 169.964L77.12 169.928L74.456 169.964C73.976 169.988 73.328 170 72.512 170C72.464 170 72.44 169.928 72.44 169.784C72.44 169.64 72.464 169.568 72.512 169.568C73.28 169.568 73.844 169.508 74.204 169.388C74.564 169.268 74.804 169.04 74.924 168.704C75.068 168.344 75.14 167.804 75.14 167.084V150.416C75.14 149.696 75.068 149.168 74.924 148.832C74.804 148.496 74.564 148.268 74.204 148.148C73.844 148.004 73.28 147.932 72.512 147.932C72.464 147.932 72.44 147.86 72.44 147.716C72.44 147.572 72.464 147.5 72.512 147.5L74.456 147.536C75.56 147.584 76.448 147.608 77.12 147.608C77.864 147.608 78.788 147.584 79.892 147.536L81.728 147.5C81.8 147.5 81.836 147.572 81.836 147.716C81.836 147.86 81.8 147.932 81.728 147.932C80.984 147.932 80.432 148.004 80.072 148.148C79.712 148.292 79.472 148.544 79.352 148.904C79.232 149.24 79.172 149.768 79.172 150.488V167.084ZM101.629 169.568C101.701 169.568 101.737 169.64 101.737 169.784C101.737 169.928 101.701 170 101.629 170C101.005 170 100.513 169.988 100.153 169.964L97.9927 169.928L95.9047 169.964C95.5207 169.988 95.0167 170 94.3927 170C94.3207 170 94.2847 169.928 94.2847 169.784C94.2847 169.64 94.3207 169.568 94.3927 169.568C95.1367 169.568 95.6407 169.4 95.9047 169.064C96.1687 168.704 96.3007 168.044 96.3007 167.084V161.9C96.3007 160.604 96.0607 159.644 95.5807 159.02C95.1247 158.396 94.3927 158.084 93.3847 158.084C92.8087 158.084 92.2087 158.204 91.5847 158.444C90.9847 158.684 90.4567 159.008 90.0007 159.416V167.084C90.0007 168.044 90.1327 168.704 90.3967 169.064C90.6847 169.4 91.2007 169.568 91.9447 169.568C92.0167 169.568 92.0527 169.64 92.0527 169.784C92.0527 169.928 92.0167 170 91.9447 170C91.3207 170 90.8287 169.988 90.4687 169.964L88.3087 169.928L86.1847 169.964C85.8247 169.988 85.3327 170 84.7087 170C84.6367 170 84.6007 169.928 84.6007 169.784C84.6007 169.64 84.6367 169.568 84.7087 169.568C85.4527 169.568 85.9567 169.4 86.2207 169.064C86.4847 168.704 86.6167 168.044 86.6167 167.084V160.316C86.6167 159.572 86.5207 159.032 86.3287 158.696C86.1607 158.336 85.8847 158.156 85.5007 158.156C85.0927 158.156 84.5167 158.324 83.7727 158.66H83.7007C83.6287 158.66 83.5687 158.6 83.5207 158.48C83.4967 158.36 83.5087 158.288 83.5567 158.264L88.5607 155.816C88.7047 155.768 88.7887 155.744 88.8127 155.744C89.0767 155.744 89.3287 156.008 89.5687 156.536C89.8087 157.04 89.9527 157.736 90.0007 158.624C91.6567 156.656 93.4807 155.672 95.4727 155.672C96.7687 155.672 97.7887 156.092 98.5327 156.932C99.3007 157.748 99.6847 158.828 99.6847 160.172V167.084C99.6847 168.044 99.8167 168.704 100.081 169.064C100.369 169.4 100.885 169.568 101.629 169.568ZM106.502 157.832C106.502 158.528 106.742 159.128 107.222 159.632C107.726 160.136 108.446 160.664 109.382 161.216C110.294 161.744 110.966 162.164 111.398 162.476C111.854 162.764 112.262 163.184 112.622 163.736C112.982 164.264 113.162 164.912 113.162 165.68C113.162 166.496 112.958 167.264 112.55 167.984C112.142 168.704 111.53 169.292 110.714 169.748C109.898 170.18 108.926 170.396 107.798 170.396C106.478 170.396 105.23 170.072 104.054 169.424C103.91 169.28 103.838 169.136 103.838 168.992L103.766 165.428C103.766 165.356 103.826 165.32 103.946 165.32C104.09 165.296 104.174 165.308 104.198 165.356C104.582 166.556 105.218 167.576 106.106 168.416C106.994 169.256 107.894 169.676 108.806 169.676C109.31 169.676 109.706 169.52 109.994 169.208C110.306 168.896 110.462 168.44 110.462 167.84C110.462 166.952 110.21 166.256 109.706 165.752C109.202 165.224 108.458 164.684 107.474 164.132C106.634 163.676 105.998 163.304 105.566 163.016C105.134 162.728 104.75 162.32 104.414 161.792C104.078 161.264 103.91 160.616 103.91 159.848C103.91 158.432 104.414 157.4 105.422 156.752C106.43 156.08 107.666 155.744 109.13 155.744C109.682 155.744 110.174 155.78 110.606 155.852C111.062 155.924 111.566 156.068 112.118 156.284C112.334 156.356 112.442 156.488 112.442 156.68C112.442 157.28 112.43 157.748 112.406 158.084L112.37 159.884C112.37 159.956 112.298 159.992 112.154 159.992C112.01 159.992 111.938 159.956 111.938 159.884C111.938 159.428 111.746 158.936 111.362 158.408C110.978 157.856 110.474 157.388 109.85 157.004C109.25 156.62 108.626 156.428 107.978 156.428C106.994 156.428 106.502 156.896 106.502 157.832ZM119.243 152.18C118.547 152.18 118.007 151.988 117.623 151.604C117.239 151.22 117.047 150.68 117.047 149.984C117.047 149.36 117.239 148.868 117.623 148.508C118.031 148.124 118.571 147.932 119.243 147.932C119.915 147.932 120.431 148.112 120.791 148.472C121.151 148.832 121.331 149.336 121.331 149.984C121.331 150.68 121.151 151.22 120.791 151.604C120.431 151.988 119.915 152.18 119.243 152.18ZM115.787 170C115.715 170 115.679 169.928 115.679 169.784C115.679 169.64 115.715 169.568 115.787 169.568C116.531 169.568 117.035 169.4 117.299 169.064C117.563 168.704 117.695 168.044 117.695 167.084V160.64C117.695 159.824 117.611 159.236 117.443 158.876C117.275 158.516 116.999 158.336 116.615 158.336C116.303 158.336 115.859 158.468 115.283 158.732H115.247C115.151 158.732 115.079 158.672 115.031 158.552C114.983 158.408 114.995 158.324 115.067 158.3L120.503 155.78L120.611 155.744C120.731 155.744 120.851 155.804 120.971 155.924C121.091 156.044 121.151 156.152 121.151 156.248V157.04C121.103 158 121.079 159.176 121.079 160.568V167.084C121.079 168.044 121.211 168.704 121.475 169.064C121.763 169.4 122.279 169.568 123.023 169.568C123.095 169.568 123.131 169.64 123.131 169.784C123.131 169.928 123.095 170 123.023 170C122.399 170 121.907 169.988 121.547 169.964L119.387 169.928L117.263 169.964C116.903 169.988 116.411 170 115.787 170ZM138.384 155.672C138.408 155.648 138.444 155.636 138.492 155.636C138.54 155.636 138.588 155.66 138.636 155.708C138.708 155.732 138.744 155.768 138.744 155.816V172.52C138.744 174.776 138.072 176.6 136.728 177.992C135.384 179.408 133.5 180.116 131.076 180.116C129.492 180.116 128.196 179.876 127.188 179.396C126.18 178.94 125.676 178.268 125.676 177.38C125.676 176.756 125.856 176.288 126.216 175.976C126.576 175.688 127.008 175.544 127.512 175.544C128.184 175.544 128.676 175.7 128.988 176.012C129.324 176.324 129.648 176.792 129.96 177.416C130.272 178.064 130.596 178.544 130.932 178.856C131.292 179.192 131.844 179.36 132.588 179.36C133.428 179.36 134.1 178.928 134.604 178.064C135.108 177.2 135.36 175.64 135.36 173.384V168.128C134.568 168.848 133.776 169.424 132.984 169.856C132.216 170.264 131.352 170.468 130.392 170.468C129.408 170.468 128.496 170.228 127.656 169.748C126.84 169.244 126.192 168.512 125.712 167.552C125.232 166.592 124.992 165.44 124.992 164.096C124.992 162.392 125.388 160.904 126.18 159.632C126.972 158.336 128.016 157.352 129.312 156.68C130.608 156.008 132 155.672 133.488 155.672C134.784 155.672 135.948 155.984 136.98 156.608C137.532 156.368 138 156.056 138.384 155.672ZM132.228 168.56C133.188 168.56 134.232 168.176 135.36 167.408V159.632C135.36 158.696 135.096 157.928 134.568 157.328C134.064 156.728 133.392 156.428 132.552 156.428C131.352 156.428 130.404 157.028 129.708 158.228C129.036 159.428 128.7 160.976 128.7 162.872C128.7 164.672 129 166.076 129.6 167.084C130.224 168.068 131.1 168.56 132.228 168.56ZM158.391 169.568C158.487 169.568 158.535 169.64 158.535 169.784C158.535 169.928 158.487 170 158.391 170C157.767 170 157.263 169.988 156.879 169.964L154.791 169.928L152.631 169.964C152.271 169.988 151.779 170 151.155 170C151.107 170 151.083 169.928 151.083 169.784C151.083 169.64 151.107 169.568 151.155 169.568C151.899 169.568 152.403 169.4 152.667 169.064C152.955 168.704 153.099 168.044 153.099 167.084V161.9C153.099 160.604 152.859 159.644 152.379 159.02C151.899 158.396 151.155 158.084 150.147 158.084C149.571 158.084 148.971 158.204 148.347 158.444C147.747 158.684 147.219 159.008 146.763 159.416V167.084C146.763 168.044 146.895 168.704 147.159 169.064C147.447 169.4 147.963 169.568 148.707 169.568C148.803 169.568 148.851 169.64 148.851 169.784C148.851 169.928 148.803 170 148.707 170C148.083 170 147.579 169.988 147.195 169.964L145.107 169.928L142.947 169.964C142.587 169.988 142.095 170 141.471 170C141.423 170 141.399 169.928 141.399 169.784C141.399 169.64 141.423 169.568 141.471 169.568C142.215 169.568 142.719 169.4 142.983 169.064C143.271 168.704 143.415 168.044 143.415 167.084V148.796C143.415 147.956 143.331 147.356 143.163 146.996C143.019 146.636 142.755 146.456 142.371 146.456C142.035 146.456 141.579 146.588 141.003 146.852H140.967C140.895 146.852 140.823 146.792 140.751 146.672C140.703 146.528 140.703 146.444 140.751 146.42L146.007 143.936L146.187 143.9C146.307 143.9 146.427 143.96 146.547 144.08C146.691 144.176 146.763 144.272 146.763 144.368V158.624C148.467 156.656 150.291 155.672 152.235 155.672C153.531 155.672 154.551 156.092 155.295 156.932C156.063 157.748 156.447 158.828 156.447 160.172V167.084C156.447 168.044 156.579 168.704 156.843 169.064C157.131 169.4 157.647 169.568 158.391 169.568ZM170.695 167.48C170.791 167.48 170.863 167.528 170.911 167.624C170.983 167.72 170.983 167.792 170.911 167.84C170.023 168.728 169.159 169.388 168.319 169.82C167.479 170.228 166.591 170.432 165.655 170.432C164.599 170.432 163.699 170.18 162.955 169.676C162.211 169.172 161.839 168.32 161.839 167.12V159.128C161.839 158.384 161.707 157.868 161.443 157.58C161.179 157.292 160.699 157.148 160.003 157.148C159.979 157.148 159.943 157.112 159.895 157.04C159.871 156.968 159.859 156.896 159.859 156.824C159.859 156.728 159.871 156.656 159.895 156.608C159.919 156.536 159.955 156.5 160.003 156.5C161.227 156.452 162.211 156.188 162.955 155.708C163.723 155.228 164.311 154.496 164.719 153.512C164.767 153.416 164.863 153.368 165.007 153.368C165.175 153.368 165.259 153.416 165.259 153.512V156.392C166.651 156.368 168.211 156.26 169.939 156.068C169.987 156.068 170.035 156.164 170.083 156.356C170.155 156.524 170.191 156.716 170.191 156.932C170.191 157.172 170.143 157.412 170.047 157.652C169.975 157.868 169.891 157.964 169.795 157.94C168.235 157.604 166.723 157.424 165.259 157.4V165.932C165.259 166.844 165.487 167.516 165.943 167.948C166.423 168.38 167.047 168.596 167.815 168.596C168.775 168.596 169.711 168.236 170.623 167.516L170.695 167.48ZM175.373 157.832C175.373 158.528 175.613 159.128 176.093 159.632C176.597 160.136 177.317 160.664 178.253 161.216C179.165 161.744 179.837 162.164 180.269 162.476C180.725 162.764 181.133 163.184 181.493 163.736C181.853 164.264 182.033 164.912 182.033 165.68C182.033 166.496 181.829 167.264 181.421 167.984C181.013 168.704 180.401 169.292 179.585 169.748C178.769 170.18 177.797 170.396 176.669 170.396C175.349 170.396 174.101 170.072 172.925 169.424C172.781 169.28 172.709 169.136 172.709 168.992L172.637 165.428C172.637 165.356 172.697 165.32 172.817 165.32C172.961 165.296 173.045 165.308 173.069 165.356C173.453 166.556 174.089 167.576 174.977 168.416C175.865 169.256 176.765 169.676 177.677 169.676C178.181 169.676 178.577 169.52 178.865 169.208C179.177 168.896 179.333 168.44 179.333 167.84C179.333 166.952 179.081 166.256 178.577 165.752C178.073 165.224 177.329 164.684 176.345 164.132C175.505 163.676 174.869 163.304 174.437 163.016C174.005 162.728 173.621 162.32 173.285 161.792C172.949 161.264 172.781 160.616 172.781 159.848C172.781 158.432 173.285 157.4 174.293 156.752C175.301 156.08 176.537 155.744 178.001 155.744C178.553 155.744 179.045 155.78 179.477 155.852C179.933 155.924 180.437 156.068 180.989 156.284C181.205 156.356 181.313 156.488 181.313 156.68C181.313 157.28 181.301 157.748 181.277 158.084L181.241 159.884C181.241 159.956 181.169 159.992 181.025 159.992C180.881 159.992 180.809 159.956 180.809 159.884C180.809 159.428 180.617 158.936 180.233 158.408C179.849 157.856 179.345 157.388 178.721 157.004C178.121 156.62 177.497 156.428 176.849 156.428C175.865 156.428 175.373 156.896 175.373 157.832Z" fill="white"/>
<circle cx="35" cy="142" r="35" fill="#0C1077"/>
<path fill-rule="evenodd" clip-rule="evenodd" d="M35 145C33.3455 145 31.9999 143.655 31.9999 142C31.9999 140.345 33.3455 139 35 139C36.6545 139 38.0001 140.345 38.0001 142C38.0001 143.655 36.6545 145 35 145ZM46.9943 137.743C46.4078 137.156 45.4583 137.156 44.8717 137.743C44.2867 138.328 44.2852 139.279 44.8717 139.864L45.5063 140.5H40.7886C40.2441 139 38.6016 136.756 36.5 136.211V131.489L37.1361 132.125C37.7211 132.712 38.6721 132.712 39.2571 132.125C39.8436 131.54 39.8436 130.591 39.2571 130.004L37.1166 127.874C35.9465 126.709 34.0535 126.709 32.8834 127.874L30.7429 130.004C30.1564 130.591 30.1564 131.54 30.7429 132.125C31.3279 132.712 32.2789 132.712 32.8639 132.125L33.5 131.489V136.211C31.3984 136.756 29.7559 139 29.2114 140.5H24.4937L25.1298 139.864C25.7148 139.279 25.7148 138.328 25.1298 137.743C24.5432 137.156 23.5922 137.156 23.0057 137.743L20.8741 139.883C19.7086 141.053 19.7086 142.947 20.8741 144.117L23.0057 146.257C23.5922 146.844 24.5417 146.844 25.1283 146.257C25.7133 145.672 25.7148 144.721 25.1283 144.136L24.4937 143.5H29.2114C29.7559 145 31.3984 147.244 33.5 147.789V152.511L32.8639 151.875C32.2789 151.288 31.3279 151.288 30.7429 151.875C30.1564 152.46 30.1564 153.409 30.7429 153.996L32.8834 156.126C34.0535 157.291 35.9465 157.291 37.1166 156.126L39.2571 153.996C39.8436 153.409 39.8436 152.46 39.2571 151.875C38.6721 151.288 37.7211 151.288 37.1361 151.875L36.5 152.511V147.789C38.6016 147.244 40.2441 145 40.7886 143.5H45.5063L44.8702 144.136C44.2852 144.721 44.2852 145.672 44.8702 146.257C45.4568 146.844 46.4078 146.844 46.9943 146.257L49.1259 144.117C50.2914 142.947 50.2914 141.053 49.1259 139.883L46.9943 137.743Z" fill="white"/>
<path d="M327.4 122.025C327.4 121.992 327.433 121.975 327.5 121.975C327.55 121.975 327.592 121.992 327.625 122.025C327.675 122.042 327.7 122.058 327.7 122.075C327.533 123.375 327.45 124.558 327.45 125.625C327.45 125.758 327.425 125.858 327.375 125.925C327.325 125.975 327.225 126 327.075 126H316.025C315.975 126 315.95 125.95 315.95 125.85C315.95 125.75 315.975 125.7 316.025 125.7C316.558 125.7 316.942 125.658 317.175 125.575C317.425 125.492 317.592 125.333 317.675 125.1C317.758 124.85 317.8 124.475 317.8 123.975V112.4C317.8 111.9 317.758 111.533 317.675 111.3C317.592 111.067 317.425 110.908 317.175 110.825C316.925 110.725 316.542 110.675 316.025 110.675C315.975 110.675 315.95 110.625 315.95 110.525C315.95 110.425 315.975 110.375 316.025 110.375H326.625C326.792 110.375 326.875 110.45 326.875 110.6L326.925 113.925C326.925 113.958 326.875 113.983 326.775 114C326.692 114.017 326.642 114 326.625 113.95C326.358 112.983 325.908 112.267 325.275 111.8C324.642 111.333 323.808 111.1 322.775 111.1H322.025C321.525 111.1 321.158 111.208 320.925 111.425C320.692 111.642 320.575 111.975 320.575 112.425V117.525H322.65C323.617 117.525 324.358 117.358 324.875 117.025C325.392 116.692 325.65 116.225 325.65 115.625C325.65 115.575 325.692 115.55 325.775 115.55C325.875 115.55 325.925 115.575 325.925 115.625L325.9 117.875L325.925 119.075C325.958 119.642 325.975 120.092 325.975 120.425C325.975 120.458 325.925 120.475 325.825 120.475C325.725 120.475 325.675 120.458 325.675 120.425C325.675 119.742 325.408 119.208 324.875 118.825C324.358 118.425 323.608 118.225 322.625 118.225H320.575V123.875C320.575 124.358 320.667 124.717 320.85 124.95C321.033 125.183 321.325 125.3 321.725 125.3H322.55C323.85 125.3 324.892 125.033 325.675 124.5C326.458 123.967 327.033 123.142 327.4 122.025ZM341.519 125.7C341.569 125.7 341.594 125.75 341.594 125.85C341.594 125.95 341.569 126 341.519 126C341.086 126 340.744 125.992 340.494 125.975L338.994 125.95L337.544 125.975C337.277 125.992 336.927 126 336.494 126C336.444 126 336.419 125.95 336.419 125.85C336.419 125.75 336.444 125.7 336.494 125.7C337.011 125.7 337.361 125.583 337.544 125.35C337.727 125.1 337.819 124.642 337.819 123.975V120.375C337.819 119.475 337.652 118.808 337.319 118.375C337.002 117.942 336.494 117.725 335.794 117.725C335.394 117.725 334.977 117.808 334.544 117.975C334.127 118.142 333.761 118.367 333.444 118.65V123.975C333.444 124.642 333.536 125.1 333.719 125.35C333.919 125.583 334.277 125.7 334.794 125.7C334.844 125.7 334.869 125.75 334.869 125.85C334.869 125.95 334.844 126 334.794 126C334.361 126 334.019 125.992 333.769 125.975L332.269 125.95L330.794 125.975C330.544 125.992 330.202 126 329.769 126C329.719 126 329.694 125.95 329.694 125.85C329.694 125.75 329.719 125.7 329.769 125.7C330.286 125.7 330.636 125.583 330.819 125.35C331.002 125.1 331.094 124.642 331.094 123.975V119.275C331.094 118.758 331.027 118.383 330.894 118.15C330.777 117.9 330.586 117.775 330.319 117.775C330.036 117.775 329.636 117.892 329.119 118.125H329.069C329.019 118.125 328.977 118.083 328.944 118C328.927 117.917 328.936 117.867 328.969 117.85L332.444 116.15C332.544 116.117 332.602 116.1 332.619 116.1C332.802 116.1 332.977 116.283 333.144 116.65C333.311 117 333.411 117.483 333.444 118.1C334.594 116.733 335.861 116.05 337.244 116.05C338.144 116.05 338.852 116.342 339.369 116.925C339.902 117.492 340.169 118.242 340.169 119.175V123.975C340.169 124.642 340.261 125.1 340.444 125.35C340.644 125.583 341.002 125.7 341.519 125.7ZM345.278 113.625C344.795 113.625 344.42 113.492 344.153 113.225C343.886 112.958 343.753 112.583 343.753 112.1C343.753 111.667 343.886 111.325 344.153 111.075C344.436 110.808 344.811 110.675 345.278 110.675C345.745 110.675 346.103 110.8 346.353 111.05C346.603 111.3 346.728 111.65 346.728 112.1C346.728 112.583 346.603 112.958 346.353 113.225C346.103 113.492 345.745 113.625 345.278 113.625ZM346.653 117C346.62 117.667 346.603 118.483 346.603 119.45V127.2C346.603 128.333 346.461 129.258 346.178 129.975C345.911 130.708 345.453 131.317 344.803 131.8C344.17 132.283 343.286 132.7 342.153 133.05C342.12 133.067 342.078 133.025 342.028 132.925C341.995 132.842 342.003 132.792 342.053 132.775C342.853 132.425 343.42 131.867 343.753 131.1C344.086 130.333 344.253 129.225 344.253 127.775V119.5C344.253 118.933 344.195 118.525 344.078 118.275C343.978 118.025 343.795 117.9 343.528 117.9C343.311 117.9 343.003 117.992 342.603 118.175H342.578C342.511 118.175 342.453 118.133 342.403 118.05C342.37 117.95 342.378 117.892 342.428 117.875L346.203 116.125L346.278 116.1C346.361 116.1 346.445 116.142 346.528 116.225C346.611 116.308 346.653 116.383 346.653 116.45V117ZM354.446 126.325C353.412 126.325 352.504 126.092 351.721 125.625C350.954 125.142 350.362 124.5 349.946 123.7C349.529 122.883 349.321 122 349.321 121.05C349.321 119.967 349.596 119.05 350.146 118.3C350.696 117.533 351.396 116.967 352.246 116.6C353.096 116.217 353.971 116.025 354.871 116.025C355.904 116.025 356.804 116.267 357.571 116.75C358.337 117.233 358.921 117.875 359.321 118.675C359.737 119.458 359.946 120.3 359.946 121.2C359.946 122.2 359.696 123.092 359.196 123.875C358.696 124.642 358.021 125.242 357.171 125.675C356.337 126.108 355.429 126.325 354.446 126.325ZM355.196 125.8C355.846 125.8 356.337 125.483 356.671 124.85C357.021 124.2 357.196 123.275 357.196 122.075C357.196 120.908 357.046 119.908 356.746 119.075C356.446 118.242 356.054 117.617 355.571 117.2C355.087 116.767 354.571 116.55 354.021 116.55C352.687 116.55 352.021 117.742 352.021 120.125C352.021 121.242 352.162 122.233 352.446 123.1C352.729 123.95 353.112 124.617 353.596 125.1C354.079 125.567 354.612 125.8 355.196 125.8ZM371.252 116.125C371.335 116.125 371.419 116.167 371.502 116.25C371.602 116.317 371.652 116.383 371.652 116.45V127.75C371.652 129.35 371.202 130.625 370.302 131.575C369.419 132.542 368.085 133.025 366.302 133.025C365.252 133.025 364.36 132.85 363.627 132.5C362.894 132.167 362.527 131.675 362.527 131.025C362.527 130.675 362.644 130.392 362.877 130.175C363.11 129.958 363.427 129.85 363.827 129.85C364.244 129.85 364.569 129.958 364.802 130.175C365.035 130.392 365.285 130.708 365.552 131.125C365.835 131.592 366.102 131.933 366.352 132.15C366.619 132.383 366.994 132.5 367.477 132.5C368.06 132.5 368.51 132.208 368.827 131.625C369.16 131.058 369.327 129.967 369.327 128.35V124.325C368.177 125.642 366.927 126.3 365.577 126.3C364.677 126.3 363.96 126.017 363.427 125.45C362.91 124.867 362.652 124.108 362.652 123.175V119.5C362.652 118.95 362.594 118.542 362.477 118.275C362.36 118.008 362.169 117.875 361.902 117.875C361.702 117.875 361.485 117.933 361.252 118.05H361.227C361.16 118.05 361.11 118.008 361.077 117.925C361.06 117.825 361.069 117.767 361.102 117.75L364.477 116.15L364.577 116.125C364.66 116.125 364.752 116.167 364.852 116.25C364.952 116.317 365.002 116.383 365.002 116.45V121.975C365.002 122.875 365.16 123.542 365.477 123.975C365.81 124.408 366.327 124.625 367.027 124.625C367.41 124.625 367.81 124.55 368.227 124.4C368.644 124.233 369.01 124.017 369.327 123.75V119.5C369.327 118.417 369.069 117.875 368.552 117.875C368.369 117.875 368.16 117.933 367.927 118.05H367.902C367.835 118.05 367.785 118.008 367.752 117.925C367.719 117.825 367.727 117.767 367.777 117.75L371.127 116.15L371.252 116.125ZM385.353 124.375C385.403 124.375 385.444 124.417 385.478 124.5C385.528 124.583 385.528 124.633 385.478 124.65L382.028 126.325C381.994 126.342 381.953 126.35 381.903 126.35C381.753 126.35 381.611 126.2 381.478 125.9C381.361 125.6 381.286 125.192 381.253 124.675C380.703 125.192 380.153 125.6 379.603 125.9C379.053 126.183 378.444 126.325 377.778 126.325C377.094 126.325 376.461 126.158 375.878 125.825C375.311 125.475 374.861 124.967 374.528 124.3C374.194 123.633 374.028 122.833 374.028 121.9C374.028 120.717 374.303 119.683 374.853 118.8C375.403 117.9 376.128 117.217 377.028 116.75C377.928 116.283 378.894 116.05 379.928 116.05C380.828 116.05 381.636 116.267 382.353 116.7C382.736 116.533 383.061 116.317 383.328 116.05C383.344 116.033 383.369 116.025 383.403 116.025C383.436 116.025 383.469 116.042 383.503 116.075C383.553 116.092 383.578 116.117 383.578 116.15V123.275C383.578 123.775 383.628 124.133 383.728 124.35C383.844 124.55 384.028 124.65 384.278 124.65C384.494 124.65 384.836 124.558 385.303 124.375H385.353ZM379.053 125C379.719 125 380.444 124.733 381.228 124.2V123.95V118.8C381.228 118.15 381.044 117.617 380.678 117.2C380.328 116.783 379.861 116.575 379.278 116.575C378.444 116.575 377.786 116.992 377.303 117.825C376.836 118.658 376.603 119.733 376.603 121.05C376.603 122.3 376.811 123.275 377.228 123.975C377.661 124.658 378.269 125 379.053 125ZM393.433 116.025C394.183 116.025 394.875 116.2 395.508 116.55C396.142 116.9 396.642 117.425 397.008 118.125C397.392 118.825 397.583 119.675 397.583 120.675C397.583 121.875 397.325 122.9 396.808 123.75C396.308 124.6 395.642 125.242 394.808 125.675C393.992 126.108 393.117 126.325 392.183 126.325C391.55 126.325 390.925 126.225 390.308 126.025C389.708 125.825 389.158 125.533 388.658 125.15L386.383 126.175H386.333C386.267 126.175 386.225 126.142 386.208 126.075C386.192 126.008 386.217 125.967 386.283 125.95C386.683 125.717 386.983 125.4 387.183 125C387.4 124.583 387.508 124.058 387.508 123.425V111.275C387.508 110.692 387.45 110.275 387.333 110.025C387.233 109.775 387.042 109.65 386.758 109.65C386.542 109.65 386.233 109.742 385.833 109.925H385.808C385.742 109.925 385.692 109.883 385.658 109.8C385.625 109.7 385.625 109.642 385.658 109.625L389.308 107.9L389.433 107.875C389.517 107.875 389.6 107.917 389.683 108C389.783 108.067 389.833 108.133 389.833 108.2V117.7C390.383 117.183 390.942 116.775 391.508 116.475C392.075 116.175 392.717 116.025 393.433 116.025ZM392.783 125.825C393.5 125.825 394.05 125.458 394.433 124.725C394.817 123.992 395.008 122.967 395.008 121.65C395.008 120.2 394.767 119.125 394.283 118.425C393.8 117.708 393.125 117.35 392.258 117.35C391.475 117.35 390.667 117.633 389.833 118.2V121.875C389.833 122.792 389.992 123.55 390.308 124.15C390.625 124.733 391.008 125.158 391.458 125.425C391.908 125.692 392.35 125.825 392.783 125.825ZM399.249 126C399.216 126 399.199 125.95 399.199 125.85C399.199 125.75 399.216 125.7 399.249 125.7C399.766 125.7 400.116 125.583 400.299 125.35C400.499 125.1 400.599 124.642 400.599 123.975L400.624 111.275C400.624 110.692 400.566 110.275 400.449 110.025C400.349 109.775 400.166 109.65 399.899 109.65C399.682 109.65 399.366 109.742 398.949 109.925H398.924C398.874 109.925 398.824 109.883 398.774 109.8C398.741 109.7 398.741 109.642 398.774 109.625L402.449 107.9L402.549 107.875C402.632 107.875 402.724 107.917 402.824 108C402.924 108.067 402.974 108.133 402.974 108.2V123.975C402.974 124.642 403.066 125.1 403.249 125.35C403.432 125.583 403.782 125.7 404.299 125.7C404.366 125.7 404.399 125.75 404.399 125.85C404.399 125.95 404.366 126 404.299 126C403.882 126 403.549 125.992 403.299 125.975L401.774 125.95L400.274 125.975C400.024 125.992 399.682 126 399.249 126ZM414.763 124.35C414.797 124.35 414.83 124.383 414.863 124.45C414.913 124.517 414.922 124.567 414.888 124.6C414.272 125.2 413.647 125.633 413.013 125.9C412.38 126.167 411.688 126.3 410.938 126.3C409.888 126.3 408.98 126.083 408.213 125.65C407.447 125.2 406.863 124.608 406.463 123.875C406.063 123.125 405.863 122.325 405.863 121.475C405.863 120.508 406.113 119.617 406.613 118.8C407.113 117.967 407.797 117.317 408.663 116.85C409.53 116.367 410.497 116.125 411.563 116.125C412.597 116.125 413.388 116.35 413.938 116.8C414.488 117.233 414.763 117.833 414.763 118.6C414.763 119.083 414.672 119.325 414.488 119.325H412.963L408.463 119.375C408.413 119.692 408.388 120.042 408.388 120.425C408.388 121.858 408.722 122.992 409.388 123.825C410.072 124.658 411.005 125.075 412.188 125.075C412.605 125.075 413.038 125.017 413.488 124.9C413.938 124.783 414.347 124.608 414.713 124.375L414.763 124.35ZM410.638 116.625C410.138 116.625 409.705 116.825 409.338 117.225C408.972 117.625 408.705 118.175 408.538 118.875L412.088 118.8C412.038 117.35 411.555 116.625 410.638 116.625ZM344.988 169.568C345.036 169.568 345.06 169.64 345.06 169.784C345.06 169.928 345.036 170 344.988 170C344.172 170 343.524 169.988 343.044 169.964L340.38 169.928L337.68 169.964C337.224 169.988 336.6 170 335.808 170C335.736 170 335.7 169.928 335.7 169.784C335.7 169.64 335.736 169.568 335.808 169.568C336.816 169.568 337.5 169.448 337.86 169.208C338.22 168.968 338.4 168.464 338.4 167.696L338.364 167.084L337.608 152.36L330.192 169.748C330.144 169.844 330.048 169.892 329.904 169.892C329.76 169.892 329.664 169.844 329.616 169.748L320.508 152.432L320.22 165.428C320.196 166.724 320.448 167.744 320.976 168.488C321.528 169.208 322.296 169.568 323.28 169.568C323.352 169.568 323.388 169.64 323.388 169.784C323.388 169.928 323.352 170 323.28 170C322.632 170 322.128 169.988 321.768 169.964L319.788 169.928L317.52 169.964C317.136 169.988 316.62 170 315.972 170C315.9 170 315.864 169.928 315.864 169.784C315.864 169.64 315.9 169.568 315.972 169.568C316.956 169.568 317.736 169.196 318.312 168.452C318.888 167.708 319.188 166.7 319.212 165.428L319.536 150.524L319.5 150.488C319.02 149.6 318.516 148.952 317.988 148.544C317.484 148.136 316.896 147.932 316.224 147.932C316.152 147.932 316.116 147.86 316.116 147.716C316.116 147.572 316.152 147.5 316.224 147.5L317.916 147.536C318.252 147.56 318.684 147.572 319.212 147.572L321.12 147.536C321.336 147.512 321.612 147.5 321.948 147.5C322.26 147.5 322.5 147.608 322.668 147.824C322.836 148.04 323.148 148.556 323.604 149.372L331.452 164.096L338.292 148.4C338.436 148.064 338.58 147.836 338.724 147.716C338.892 147.572 339.108 147.5 339.372 147.5C339.588 147.5 339.828 147.512 340.092 147.536C340.38 147.56 340.704 147.572 341.064 147.572L343.188 147.536C343.524 147.512 344.004 147.5 344.628 147.5C344.7 147.5 344.736 147.572 344.736 147.716C344.736 147.86 344.7 147.932 344.628 147.932C343.5 147.932 342.684 148.16 342.18 148.616C341.676 149.072 341.448 149.78 341.496 150.74L342.36 167.084C342.408 167.828 342.492 168.368 342.612 168.704C342.756 169.04 342.996 169.268 343.332 169.388C343.692 169.508 344.244 169.568 344.988 169.568ZM354.399 170.468C352.911 170.468 351.603 170.132 350.475 169.46C349.371 168.764 348.519 167.84 347.919 166.688C347.319 165.512 347.019 164.24 347.019 162.872C347.019 161.312 347.415 159.992 348.207 158.912C348.999 157.808 350.007 156.992 351.231 156.464C352.455 155.912 353.715 155.636 355.011 155.636C356.499 155.636 357.795 155.984 358.899 156.68C360.003 157.376 360.843 158.3 361.419 159.452C362.019 160.58 362.319 161.792 362.319 163.088C362.319 164.528 361.959 165.812 361.239 166.94C360.519 168.044 359.547 168.908 358.323 169.532C357.123 170.156 355.815 170.468 354.399 170.468ZM355.479 169.712C356.415 169.712 357.123 169.256 357.603 168.344C358.107 167.408 358.359 166.076 358.359 164.348C358.359 162.668 358.143 161.228 357.711 160.028C357.279 158.828 356.715 157.928 356.019 157.328C355.323 156.704 354.579 156.392 353.787 156.392C351.867 156.392 350.907 158.108 350.907 161.54C350.907 163.148 351.111 164.576 351.519 165.824C351.927 167.048 352.479 168.008 353.175 168.704C353.871 169.376 354.639 169.712 355.479 169.712ZM390.804 169.568C390.9 169.568 390.948 169.64 390.948 169.784C390.948 169.928 390.9 170 390.804 170C390.18 170 389.688 169.988 389.328 169.964L387.168 169.928L385.08 169.964C384.696 169.988 384.192 170 383.568 170C383.496 170 383.46 169.928 383.46 169.784C383.46 169.64 383.496 169.568 383.568 169.568C384.312 169.568 384.816 169.4 385.08 169.064C385.368 168.704 385.512 168.044 385.512 167.084V161.9C385.512 160.604 385.284 159.644 384.828 159.02C384.396 158.396 383.724 158.084 382.812 158.084C382.188 158.084 381.576 158.216 380.976 158.48C380.376 158.744 379.86 159.104 379.428 159.56V159.776V167.084C379.428 168.044 379.56 168.704 379.824 169.064C380.112 169.4 380.628 169.568 381.372 169.568C381.468 169.568 381.516 169.64 381.516 169.784C381.516 169.928 381.468 170 381.372 170C380.748 170 380.256 169.988 379.896 169.964L377.736 169.928L375.648 169.964C375.264 169.988 374.76 170 374.136 170C374.064 170 374.028 169.928 374.028 169.784C374.028 169.64 374.064 169.568 374.136 169.568C374.88 169.568 375.384 169.4 375.648 169.064C375.936 168.704 376.08 168.044 376.08 167.084V161.9C376.08 160.604 375.852 159.644 375.396 159.02C374.964 158.396 374.292 158.084 373.38 158.084C372.804 158.084 372.228 158.204 371.652 158.444C371.1 158.66 370.608 158.972 370.176 159.38V167.084C370.176 168.044 370.308 168.704 370.572 169.064C370.86 169.4 371.376 169.568 372.12 169.568C372.192 169.568 372.228 169.64 372.228 169.784C372.228 169.928 372.192 170 372.12 170C371.496 170 371.004 169.988 370.644 169.964L368.484 169.928L366.36 169.964C366 169.988 365.508 170 364.884 170C364.812 170 364.776 169.928 364.776 169.784C364.776 169.64 364.812 169.568 364.884 169.568C365.628 169.568 366.132 169.4 366.396 169.064C366.66 168.704 366.792 168.044 366.792 167.084V160.316C366.792 159.572 366.696 159.032 366.504 158.696C366.336 158.336 366.06 158.156 365.676 158.156C365.268 158.156 364.692 158.324 363.948 158.66H363.876C363.804 158.66 363.744 158.6 363.696 158.48C363.672 158.36 363.684 158.288 363.732 158.264L368.736 155.816C368.88 155.768 368.964 155.744 368.988 155.744C369.252 155.744 369.504 156.008 369.744 156.536C369.984 157.04 370.128 157.724 370.176 158.588C371.808 156.644 373.56 155.672 375.432 155.672C376.56 155.672 377.46 155.948 378.132 156.5C378.804 157.052 379.212 157.844 379.356 158.876C381.012 156.74 382.848 155.672 384.864 155.672C386.16 155.672 387.144 156.044 387.816 156.788C388.512 157.532 388.86 158.66 388.86 160.172V167.084C388.86 168.044 388.992 168.704 389.256 169.064C389.544 169.4 390.06 169.568 390.804 169.568ZM405.433 167.624C405.481 167.624 405.529 167.672 405.577 167.768C405.649 167.864 405.661 167.936 405.613 167.984C404.725 168.848 403.825 169.472 402.913 169.856C402.001 170.24 401.005 170.432 399.925 170.432C398.413 170.432 397.105 170.12 396.001 169.496C394.897 168.848 394.057 167.996 393.481 166.94C392.905 165.86 392.617 164.708 392.617 163.484C392.617 162.092 392.977 160.808 393.697 159.632C394.417 158.432 395.401 157.496 396.649 156.824C397.897 156.128 399.289 155.78 400.825 155.78C402.313 155.78 403.453 156.104 404.245 156.752C405.037 157.376 405.433 158.24 405.433 159.344C405.433 160.04 405.301 160.388 405.037 160.388H402.841L396.361 160.46C396.289 160.916 396.253 161.42 396.253 161.972C396.253 164.036 396.733 165.668 397.693 166.868C398.677 168.068 400.021 168.668 401.725 168.668C402.325 168.668 402.949 168.584 403.597 168.416C404.245 168.248 404.833 167.996 405.361 167.66L405.433 167.624ZM399.493 156.5C398.773 156.5 398.149 156.788 397.621 157.364C397.093 157.94 396.709 158.732 396.469 159.74L401.581 159.632C401.509 157.544 400.813 156.5 399.493 156.5ZM424.836 169.568C424.908 169.568 424.944 169.64 424.944 169.784C424.944 169.928 424.908 170 424.836 170C424.212 170 423.72 169.988 423.36 169.964L421.2 169.928L419.112 169.964C418.728 169.988 418.224 170 417.6 170C417.528 170 417.492 169.928 417.492 169.784C417.492 169.64 417.528 169.568 417.6 169.568C418.344 169.568 418.848 169.4 419.112 169.064C419.376 168.704 419.508 168.044 419.508 167.084V161.9C419.508 160.604 419.268 159.644 418.788 159.02C418.332 158.396 417.6 158.084 416.592 158.084C416.016 158.084 415.416 158.204 414.792 158.444C414.192 158.684 413.664 159.008 413.208 159.416V167.084C413.208 168.044 413.34 168.704 413.604 169.064C413.892 169.4 414.408 169.568 415.152 169.568C415.224 169.568 415.26 169.64 415.26 169.784C415.26 169.928 415.224 170 415.152 170C414.528 170 414.036 169.988 413.676 169.964L411.516 169.928L409.392 169.964C409.032 169.988 408.54 170 407.916 170C407.844 170 407.808 169.928 407.808 169.784C407.808 169.64 407.844 169.568 407.916 169.568C408.66 169.568 409.164 169.4 409.428 169.064C409.692 168.704 409.824 168.044 409.824 167.084V160.316C409.824 159.572 409.728 159.032 409.536 158.696C409.368 158.336 409.092 158.156 408.708 158.156C408.3 158.156 407.724 158.324 406.98 158.66H406.908C406.836 158.66 406.776 158.6 406.728 158.48C406.704 158.36 406.716 158.288 406.764 158.264L411.768 155.816C411.912 155.768 411.996 155.744 412.02 155.744C412.284 155.744 412.536 156.008 412.776 156.536C413.016 157.04 413.16 157.736 413.208 158.624C414.864 156.656 416.688 155.672 418.68 155.672C419.976 155.672 420.996 156.092 421.74 156.932C422.508 157.748 422.892 158.828 422.892 160.172V167.084C422.892 168.044 423.024 168.704 423.288 169.064C423.576 169.4 424.092 169.568 424.836 169.568ZM437.125 167.48C437.221 167.48 437.293 167.528 437.341 167.624C437.413 167.72 437.413 167.792 437.341 167.84C436.453 168.728 435.589 169.388 434.749 169.82C433.909 170.228 433.021 170.432 432.085 170.432C431.029 170.432 430.129 170.18 429.385 169.676C428.641 169.172 428.269 168.32 428.269 167.12V159.128C428.269 158.384 428.137 157.868 427.873 157.58C427.609 157.292 427.129 157.148 426.433 157.148C426.409 157.148 426.373 157.112 426.325 157.04C426.301 156.968 426.289 156.896 426.289 156.824C426.289 156.728 426.301 156.656 426.325 156.608C426.349 156.536 426.385 156.5 426.433 156.5C427.657 156.452 428.641 156.188 429.385 155.708C430.153 155.228 430.741 154.496 431.149 153.512C431.197 153.416 431.293 153.368 431.437 153.368C431.605 153.368 431.689 153.416 431.689 153.512V156.392C433.081 156.368 434.641 156.26 436.369 156.068C436.417 156.068 436.465 156.164 436.513 156.356C436.585 156.524 436.621 156.716 436.621 156.932C436.621 157.172 436.573 157.412 436.477 157.652C436.405 157.868 436.321 157.964 436.225 157.94C434.665 157.604 433.153 157.424 431.689 157.4V165.932C431.689 166.844 431.917 167.516 432.373 167.948C432.853 168.38 433.477 168.596 434.245 168.596C435.205 168.596 436.141 168.236 437.053 167.516L437.125 167.48ZM441.803 157.832C441.803 158.528 442.043 159.128 442.523 159.632C443.027 160.136 443.747 160.664 444.683 161.216C445.595 161.744 446.267 162.164 446.699 162.476C447.155 162.764 447.563 163.184 447.923 163.736C448.283 164.264 448.463 164.912 448.463 165.68C448.463 166.496 448.259 167.264 447.851 167.984C447.443 168.704 446.831 169.292 446.015 169.748C445.199 170.18 444.227 170.396 443.099 170.396C441.779 170.396 440.531 170.072 439.355 169.424C439.211 169.28 439.139 169.136 439.139 168.992L439.067 165.428C439.067 165.356 439.127 165.32 439.247 165.32C439.391 165.296 439.475 165.308 439.499 165.356C439.883 166.556 440.519 167.576 441.407 168.416C442.295 169.256 443.195 169.676 444.107 169.676C444.611 169.676 445.007 169.52 445.295 169.208C445.607 168.896 445.763 168.44 445.763 167.84C445.763 166.952 445.511 166.256 445.007 165.752C444.503 165.224 443.759 164.684 442.775 164.132C441.935 163.676 441.299 163.304 440.867 163.016C440.435 162.728 440.051 162.32 439.715 161.792C439.379 161.264 439.211 160.616 439.211 159.848C439.211 158.432 439.715 157.4 440.723 156.752C441.731 156.08 442.967 155.744 444.431 155.744C444.983 155.744 445.475 155.78 445.907 155.852C446.363 155.924 446.867 156.068 447.419 156.284C447.635 156.356 447.743 156.488 447.743 156.68C447.743 157.28 447.731 157.748 447.707 158.084L447.671 159.884C447.671 159.956 447.599 159.992 447.455 159.992C447.311 159.992 447.239 159.956 447.239 159.884C447.239 159.428 447.047 158.936 446.663 158.408C446.279 157.856 445.775 157.388 445.151 157.004C444.551 156.62 443.927 156.428 443.279 156.428C442.295 156.428 441.803 156.896 441.803 157.832Z" fill="white"/>
<circle cx="275" cy="142" r="35" fill="white"/>
<path fill-rule="evenodd" clip-rule="evenodd" d="M284 139C284 140.658 282.658 142 281 142C279.342 142 278 140.658 278 139C278 137.342 279.342 136 281 136C282.658 136 284 137.342 284 139ZM282.337 145.234C280.816 152.922 269.185 152.922 267.664 145.234C267.485 144.328 268.238 143.5 269.162 143.5C269.882 143.5 270.47 144.021 270.638 144.721C271.681 149.094 278.32 149.094 279.362 144.721C279.53 144.021 280.118 143.5 280.838 143.5C281.762 143.5 282.515 144.328 282.337 145.234ZM269 142C267.342 142 266 140.658 266 139C266 137.342 267.342 136 269 136C270.658 136 272 137.342 272 139C272 140.658 270.658 142 269 142ZM275 154C268.384 154 263 148.616 263 142C263 135.384 268.384 130 275 130C281.616 130 287 135.384 287 142C287 148.616 281.616 154 275 154ZM275 127C266.716 127 260 133.716 260 142C260 150.285 266.716 157 275 157C283.285 157 290 150.285 290 142C290 133.716 283.285 127 275 127Z" fill="#0C1077"/>
<path d="M333.75 3.375C333.783 3.375 333.8 3.425 333.8 3.525C333.8 3.625 333.783 3.675 333.75 3.675C333.117 3.675 332.508 3.94167 331.925 4.475C331.342 4.99167 330.925 5.70833 330.675 6.625L327.225 18.975C327.225 19.0417 327.133 19.075 326.95 19.075C326.783 19.075 326.692 19.0417 326.675 18.975L321.825 7.575L318.2 18.975C318.2 19.0417 318.108 19.075 317.925 19.075C317.742 19.075 317.642 19.0417 317.625 18.975L313.025 5.45C312.775 4.73333 312.517 4.25833 312.25 4.025C311.983 3.79167 311.608 3.675 311.125 3.675C311.075 3.675 311.05 3.625 311.05 3.525C311.05 3.425 311.075 3.375 311.125 3.375C311.375 3.375 311.55 3.38333 311.65 3.4C311.983 3.43333 312.417 3.45 312.95 3.45C314.133 3.45 315.225 3.43333 316.225 3.4C316.508 3.38333 316.842 3.375 317.225 3.375C317.275 3.375 317.3 3.425 317.3 3.525C317.3 3.625 317.275 3.675 317.225 3.675C316.325 3.675 315.875 4.04167 315.875 4.775C315.875 5.075 315.95 5.45 316.1 5.9L318.95 14.375L322.45 3.375C322.5 3.325 322.6 3.3 322.75 3.3C322.917 3.3 323.008 3.325 323.025 3.375L327.775 14.475L329.85 6.8C330 6.26667 330.075 5.80833 330.075 5.425C330.075 4.25833 329.425 3.675 328.125 3.675C328.092 3.675 328.075 3.625 328.075 3.525C328.075 3.425 328.092 3.375 328.125 3.375L329.525 3.4C330.358 3.43333 331.025 3.45 331.525 3.45C331.858 3.45 332.242 3.43333 332.675 3.4L333.75 3.375ZM337.628 19.325C336.595 19.325 335.686 19.0917 334.903 18.625C334.136 18.1417 333.545 17.5 333.128 16.7C332.711 15.8833 332.503 15 332.503 14.05C332.503 12.9667 332.778 12.05 333.328 11.3C333.878 10.5333 334.578 9.96667 335.428 9.6C336.278 9.21667 337.153 9.025 338.053 9.025C339.086 9.025 339.986 9.26667 340.753 9.75C341.52 10.2333 342.103 10.875 342.503 11.675C342.92 12.4583 343.128 13.3 343.128 14.2C343.128 15.2 342.878 16.0917 342.378 16.875C341.878 17.6417 341.203 18.2417 340.353 18.675C339.52 19.1083 338.611 19.325 337.628 19.325ZM338.378 18.8C339.028 18.8 339.52 18.4833 339.853 17.85C340.203 17.2 340.378 16.275 340.378 15.075C340.378 13.9083 340.228 12.9083 339.928 12.075C339.628 11.2417 339.236 10.6167 338.753 10.2C338.27 9.76667 337.753 9.55 337.203 9.55C335.87 9.55 335.203 10.7417 335.203 13.125C335.203 14.2417 335.345 15.2333 335.628 16.1C335.911 16.95 336.295 17.6167 336.778 18.1C337.261 18.5667 337.795 18.8 338.378 18.8ZM356.66 18.7C356.71 18.7 356.735 18.75 356.735 18.85C356.735 18.95 356.71 19 356.66 19C356.226 19 355.885 18.9917 355.635 18.975L354.135 18.95L352.685 18.975C352.418 18.9917 352.068 19 351.635 19C351.585 19 351.56 18.95 351.56 18.85C351.56 18.75 351.585 18.7 351.635 18.7C352.151 18.7 352.501 18.5833 352.685 18.35C352.868 18.1 352.96 17.6417 352.96 16.975V13.375C352.96 12.475 352.793 11.8083 352.46 11.375C352.143 10.9417 351.635 10.725 350.935 10.725C350.535 10.725 350.118 10.8083 349.685 10.975C349.268 11.1417 348.901 11.3667 348.585 11.65V16.975C348.585 17.6417 348.676 18.1 348.86 18.35C349.06 18.5833 349.418 18.7 349.935 18.7C349.985 18.7 350.01 18.75 350.01 18.85C350.01 18.95 349.985 19 349.935 19C349.501 19 349.16 18.9917 348.91 18.975L347.41 18.95L345.935 18.975C345.685 18.9917 345.343 19 344.91 19C344.86 19 344.835 18.95 344.835 18.85C344.835 18.75 344.86 18.7 344.91 18.7C345.426 18.7 345.776 18.5833 345.96 18.35C346.143 18.1 346.235 17.6417 346.235 16.975V12.275C346.235 11.7583 346.168 11.3833 346.035 11.15C345.918 10.9 345.726 10.775 345.46 10.775C345.176 10.775 344.776 10.8917 344.26 11.125H344.21C344.16 11.125 344.118 11.0833 344.085 11C344.068 10.9167 344.076 10.8667 344.11 10.85L347.585 9.15C347.685 9.11667 347.743 9.1 347.76 9.1C347.943 9.1 348.118 9.28333 348.285 9.65C348.451 10 348.551 10.4833 348.585 11.1C349.735 9.73333 351.001 9.05 352.385 9.05C353.285 9.05 353.993 9.34167 354.51 9.925C355.043 10.4917 355.31 11.2417 355.31 12.175V16.975C355.31 17.6417 355.401 18.1 355.585 18.35C355.785 18.5833 356.143 18.7 356.66 18.7ZM369.669 17.375C369.719 17.375 369.76 17.4167 369.794 17.5C369.844 17.5833 369.852 17.6333 369.819 17.65L366.369 19.325L366.244 19.35C366.094 19.35 365.952 19.1917 365.819 18.875C365.702 18.5583 365.627 18.125 365.594 17.575C364.36 18.7417 363.102 19.325 361.819 19.325C361.085 19.325 360.419 19.1333 359.819 18.75C359.235 18.3667 358.769 17.8083 358.419 17.075C358.069 16.325 357.894 15.45 357.894 14.45C357.894 13.1833 358.185 12.15 358.769 11.35C359.369 10.5333 360.102 9.94167 360.969 9.575C361.852 9.20833 362.735 9.025 363.619 9.025C364.235 9.025 364.885 9.125 365.569 9.325V4.275C365.569 3.69167 365.51 3.275 365.394 3.025C365.294 2.775 365.11 2.65 364.844 2.65C364.627 2.65 364.319 2.74167 363.919 2.925H363.894C363.827 2.925 363.769 2.88333 363.719 2.8C363.685 2.7 363.685 2.64167 363.719 2.625L367.394 0.899999L367.494 0.874999C367.577 0.874999 367.669 0.916666 367.769 0.999999C367.869 1.06667 367.919 1.13333 367.919 1.2V16.1C367.919 16.6667 367.969 17.0667 368.069 17.3C368.185 17.5333 368.369 17.65 368.619 17.65C368.835 17.65 369.177 17.5583 369.644 17.375H369.669ZM363.194 18.125C364.027 18.125 364.819 17.775 365.569 17.075V16.95V10.875C365.269 10.4583 364.927 10.1583 364.544 9.975C364.177 9.775 363.744 9.675 363.244 9.675C362.344 9.675 361.652 9.99167 361.169 10.625C360.702 11.2417 360.469 12.25 360.469 13.65C360.469 15.05 360.719 16.15 361.219 16.95C361.719 17.7333 362.377 18.125 363.194 18.125ZM379.538 17.35C379.571 17.35 379.605 17.3833 379.638 17.45C379.688 17.5167 379.696 17.5667 379.663 17.6C379.046 18.2 378.421 18.6333 377.788 18.9C377.155 19.1667 376.463 19.3 375.713 19.3C374.663 19.3 373.755 19.0833 372.988 18.65C372.221 18.2 371.638 17.6083 371.238 16.875C370.838 16.125 370.638 15.325 370.638 14.475C370.638 13.5083 370.888 12.6167 371.388 11.8C371.888 10.9667 372.571 10.3167 373.438 9.85C374.305 9.36667 375.271 9.125 376.338 9.125C377.371 9.125 378.163 9.35 378.713 9.8C379.263 10.2333 379.538 10.8333 379.538 11.6C379.538 12.0833 379.446 12.325 379.263 12.325H377.738L373.238 12.375C373.188 12.6917 373.163 13.0417 373.163 13.425C373.163 14.8583 373.496 15.9917 374.163 16.825C374.846 17.6583 375.78 18.075 376.963 18.075C377.38 18.075 377.813 18.0167 378.263 17.9C378.713 17.7833 379.121 17.6083 379.488 17.375L379.538 17.35ZM375.413 9.625C374.913 9.625 374.48 9.825 374.113 10.225C373.746 10.625 373.48 11.175 373.313 11.875L376.863 11.8C376.813 10.35 376.33 9.625 375.413 9.625ZM387.762 9.1C388.145 9.1 388.512 9.24167 388.862 9.525C389.229 9.79167 389.412 10.1167 389.412 10.5C389.412 10.85 389.304 11.1417 389.087 11.375C388.87 11.5917 388.587 11.7 388.237 11.7C387.987 11.7 387.779 11.65 387.612 11.55C387.462 11.45 387.304 11.3 387.137 11.1C386.987 10.9333 386.854 10.8167 386.737 10.75C386.637 10.6667 386.512 10.625 386.362 10.625C386.195 10.625 386.012 10.6917 385.812 10.825C385.629 10.9417 385.337 11.2 384.937 11.6V16.975C384.937 17.6417 385.095 18.1 385.412 18.35C385.729 18.5833 386.312 18.7 387.162 18.7C387.229 18.7 387.262 18.75 387.262 18.85C387.262 18.95 387.229 19 387.162 19C386.579 19 386.12 18.9917 385.787 18.975L383.762 18.95L382.287 18.975C382.037 18.9917 381.695 19 381.262 19C381.212 19 381.187 18.95 381.187 18.85C381.187 18.75 381.212 18.7 381.262 18.7C381.779 18.7 382.129 18.5833 382.312 18.35C382.495 18.1 382.587 17.6417 382.587 16.975V12.275C382.587 11.7583 382.52 11.3833 382.387 11.15C382.27 10.9 382.079 10.775 381.812 10.775C381.529 10.775 381.129 10.8917 380.612 11.125H380.562C380.512 11.125 380.47 11.0833 380.437 11C380.42 10.9167 380.429 10.8667 380.462 10.85L383.937 9.15C384.037 9.11667 384.095 9.1 384.112 9.1C384.295 9.1 384.462 9.275 384.612 9.625C384.779 9.95833 384.879 10.4167 384.912 11C385.595 10.3 386.154 9.80833 386.587 9.525C387.037 9.24167 387.429 9.1 387.762 9.1ZM397.735 0.85C398.668 0.85 399.393 0.983333 399.91 1.25C400.426 1.5 400.685 1.85833 400.685 2.325C400.685 2.70833 400.551 3.00833 400.285 3.225C400.035 3.44167 399.743 3.55 399.41 3.55C399.01 3.55 398.718 3.45833 398.535 3.275C398.351 3.09167 398.185 2.825 398.035 2.475C397.885 2.125 397.726 1.86667 397.56 1.7C397.393 1.51667 397.126 1.425 396.76 1.425C395.993 1.425 395.385 1.95833 394.935 3.025C394.501 4.09167 394.285 5.75833 394.285 8.025V9.55C394.801 9.53333 395.718 9.45833 397.035 9.325C397.085 9.325 397.126 9.39167 397.16 9.525C397.193 9.64167 397.21 9.775 397.21 9.925C397.21 10.0917 397.176 10.2583 397.11 10.425C397.06 10.575 397.01 10.6417 396.96 10.625C396.16 10.425 395.268 10.3 394.285 10.25V16.975C394.285 17.4917 394.335 17.8667 394.435 18.1C394.535 18.3333 394.735 18.4917 395.035 18.575C395.351 18.6583 395.843 18.7 396.51 18.7C396.576 18.7 396.61 18.75 396.61 18.85C396.61 18.95 396.576 19 396.51 19L394.785 18.975C394.401 18.9583 393.835 18.95 393.085 18.95L391.56 18.975C391.293 18.9917 390.918 19 390.435 19C390.368 19 390.335 18.95 390.335 18.85C390.335 18.75 390.368 18.7 390.435 18.7C390.868 18.7 391.185 18.6583 391.385 18.575C391.601 18.4917 391.743 18.3333 391.81 18.1C391.893 17.85 391.935 17.475 391.935 16.975V11.35C391.935 10.8333 391.826 10.5 391.61 10.35C391.393 10.1833 390.968 10.1 390.335 10.1C390.285 10.1 390.26 10.025 390.26 9.875C390.26 9.725 390.285 9.65 390.335 9.65C390.918 9.65 391.318 9.575 391.535 9.425C391.751 9.25833 391.868 8.96667 391.885 8.55C391.968 5.83333 392.485 3.875 393.435 2.675C394.385 1.45833 395.818 0.85 397.735 0.85ZM409.852 17.375C409.902 17.375 409.944 17.4167 409.977 17.5C410.027 17.5833 410.027 17.6333 409.977 17.65L406.527 19.325C406.494 19.3417 406.452 19.35 406.402 19.35C406.235 19.35 406.085 19.175 405.952 18.825C405.835 18.4583 405.769 17.9667 405.752 17.35C404.652 18.65 403.46 19.3 402.177 19.3C401.26 19.3 400.535 19.0167 400.002 18.45C399.485 17.8667 399.227 17.1083 399.227 16.175V12.5C399.227 11.4167 398.969 10.875 398.452 10.875C398.269 10.875 398.06 10.9333 397.827 11.05H397.802C397.735 11.05 397.685 11.0083 397.652 10.925C397.619 10.825 397.627 10.7667 397.677 10.75L401.027 9.15L401.152 9.125C401.235 9.125 401.319 9.16667 401.402 9.25C401.502 9.31667 401.552 9.38333 401.552 9.45V14.975C401.552 16.775 402.244 17.675 403.627 17.675C403.994 17.675 404.36 17.6 404.727 17.45C405.11 17.2833 405.452 17.0583 405.752 16.775V12.5C405.752 11.4167 405.494 10.875 404.977 10.875C404.794 10.875 404.577 10.9333 404.327 11.05H404.302C404.252 11.05 404.21 11.0083 404.177 10.925C404.144 10.825 404.152 10.7667 404.202 10.75L407.552 9.15C407.585 9.13333 407.627 9.125 407.677 9.125C407.76 9.125 407.844 9.16667 407.927 9.25C408.027 9.31667 408.077 9.38333 408.077 9.45V16.1C408.077 16.6667 408.127 17.0667 408.227 17.3C408.344 17.5333 408.527 17.65 408.777 17.65C409.01 17.65 409.352 17.5583 409.802 17.375H409.852ZM410.874 19C410.841 19 410.824 18.95 410.824 18.85C410.824 18.75 410.841 18.7 410.874 18.7C411.391 18.7 411.741 18.5833 411.924 18.35C412.124 18.1 412.224 17.6417 412.224 16.975L412.249 4.275C412.249 3.69167 412.191 3.275 412.074 3.025C411.974 2.775 411.791 2.65 411.524 2.65C411.307 2.65 410.991 2.74167 410.574 2.925H410.549C410.499 2.925 410.449 2.88333 410.399 2.8C410.366 2.7 410.366 2.64167 410.399 2.625L414.074 0.899999L414.174 0.874999C414.257 0.874999 414.349 0.916666 414.449 0.999999C414.549 1.06667 414.599 1.13333 414.599 1.2V16.975C414.599 17.6417 414.691 18.1 414.874 18.35C415.057 18.5833 415.407 18.7 415.924 18.7C415.991 18.7 416.024 18.75 416.024 18.85C416.024 18.95 415.991 19 415.924 19C415.507 19 415.174 18.9917 414.924 18.975L413.399 18.95L411.899 18.975C411.649 18.9917 411.307 19 410.874 19ZM323.96 50.364C325.976 50.604 327.572 51.276 328.748 52.38C329.948 53.484 330.548 54.852 330.548 56.484C330.548 57.732 330.188 58.86 329.468 59.868C328.748 60.876 327.752 61.68 326.48 62.28C325.208 62.856 323.792 63.144 322.232 63.144C321.56 63.144 320.792 63.108 319.928 63.036C319.592 63.012 319.172 62.988 318.668 62.964C318.188 62.94 317.648 62.928 317.048 62.928L314.42 62.964C313.94 62.988 313.292 63 312.476 63C312.404 63 312.368 62.928 312.368 62.784C312.368 62.64 312.404 62.568 312.476 62.568C313.172 62.568 313.7 62.508 314.06 62.388C314.42 62.244 314.672 62.004 314.816 61.668C314.984 61.308 315.068 60.78 315.068 60.084V43.416C315.068 42.408 314.9 41.748 314.564 41.436C314.228 41.1 313.544 40.932 312.512 40.932C312.464 40.932 312.44 40.86 312.44 40.716C312.44 40.572 312.464 40.5 312.512 40.5L314.42 40.536C315.524 40.584 316.4 40.608 317.048 40.608C317.72 40.608 318.416 40.572 319.136 40.5C319.376 40.476 319.736 40.452 320.216 40.428C320.696 40.404 321.116 40.392 321.476 40.392C323.66 40.392 325.352 40.788 326.552 41.58C327.752 42.372 328.352 43.524 328.352 45.036C328.352 46.188 327.968 47.232 327.2 48.168C326.456 49.104 325.376 49.836 323.96 50.364ZM320.936 41.184C320.24 41.184 319.76 41.352 319.496 41.688C319.232 42 319.1 42.6 319.1 43.488V50.328L320.54 50.364C321.788 50.364 322.748 49.896 323.42 48.96C324.092 48.024 324.428 46.824 324.428 45.36C324.428 43.992 324.128 42.96 323.528 42.264C322.928 41.544 322.064 41.184 320.936 41.184ZM321.62 62.244C324.764 62.244 326.336 60.612 326.336 57.348C326.336 55.5 325.892 54.036 325.004 52.956C324.116 51.876 322.772 51.336 320.972 51.336C320.276 51.336 319.652 51.36 319.1 51.408V60.084C319.1 60.876 319.256 61.44 319.568 61.776C319.88 62.088 320.564 62.244 321.62 62.244ZM346.378 60.624C346.426 60.624 346.474 60.672 346.522 60.768C346.594 60.864 346.606 60.936 346.558 60.984C345.67 61.848 344.77 62.472 343.858 62.856C342.946 63.24 341.95 63.432 340.87 63.432C339.358 63.432 338.05 63.12 336.946 62.496C335.842 61.848 335.002 60.996 334.426 59.94C333.85 58.86 333.562 57.708 333.562 56.484C333.562 55.092 333.922 53.808 334.642 52.632C335.362 51.432 336.346 50.496 337.594 49.824C338.842 49.128 340.234 48.78 341.77 48.78C343.258 48.78 344.398 49.104 345.19 49.752C345.982 50.376 346.378 51.24 346.378 52.344C346.378 53.04 346.246 53.388 345.982 53.388H343.786L337.306 53.46C337.234 53.916 337.198 54.42 337.198 54.972C337.198 57.036 337.678 58.668 338.638 59.868C339.622 61.068 340.966 61.668 342.67 61.668C343.27 61.668 343.894 61.584 344.542 61.416C345.19 61.248 345.778 60.996 346.306 60.66L346.378 60.624ZM340.438 49.5C339.718 49.5 339.094 49.788 338.566 50.364C338.038 50.94 337.654 51.732 337.414 52.74L342.526 52.632C342.454 50.544 341.758 49.5 340.438 49.5ZM364.706 60.66C364.778 60.66 364.838 60.72 364.886 60.84C364.958 60.96 364.958 61.032 364.886 61.056L359.918 63.468C359.87 63.492 359.81 63.504 359.738 63.504C359.522 63.504 359.318 63.288 359.126 62.856C358.958 62.424 358.85 61.836 358.802 61.092C358.01 61.836 357.218 62.424 356.426 62.856C355.634 63.264 354.758 63.468 353.798 63.468C352.814 63.468 351.902 63.228 351.062 62.748C350.246 62.244 349.598 61.512 349.118 60.552C348.638 59.592 348.398 58.44 348.398 57.096C348.398 55.392 348.794 53.904 349.586 52.632C350.378 51.336 351.422 50.352 352.718 49.68C354.014 49.008 355.406 48.672 356.894 48.672C358.19 48.672 359.354 48.984 360.386 49.608C360.938 49.368 361.406 49.056 361.79 48.672C361.814 48.648 361.85 48.636 361.898 48.636C361.946 48.636 361.994 48.66 362.042 48.708C362.114 48.732 362.15 48.768 362.15 48.816V59.076C362.15 59.796 362.222 60.312 362.366 60.624C362.534 60.912 362.798 61.056 363.158 61.056C363.47 61.056 363.962 60.924 364.634 60.66H364.706ZM355.634 61.56C356.594 61.56 357.638 61.176 358.766 60.408V60.048V52.632C358.766 51.696 358.502 50.928 357.974 50.328C357.47 49.728 356.798 49.428 355.958 49.428C354.758 49.428 353.81 50.028 353.114 51.228C352.442 52.428 352.106 53.976 352.106 55.872C352.106 57.672 352.406 59.076 353.006 60.084C353.63 61.068 354.506 61.56 355.634 61.56ZM373.319 63.432C371.735 63.432 370.391 63.096 369.287 62.424C368.207 61.728 367.391 60.84 366.839 59.76C366.311 58.656 366.047 57.504 366.047 56.304C366.047 54.792 366.467 53.472 367.307 52.344C368.147 51.192 369.215 50.316 370.511 49.716C371.831 49.092 373.175 48.78 374.543 48.78C375.695 48.78 376.727 49.02 377.639 49.5C378.575 49.98 379.043 50.64 379.043 51.48C379.043 51.936 378.863 52.332 378.503 52.668C378.167 52.98 377.687 53.136 377.063 53.136C376.487 53.136 376.031 52.992 375.695 52.704C375.359 52.392 375.083 51.924 374.867 51.3C374.651 50.628 374.435 50.172 374.219 49.932C374.027 49.668 373.667 49.536 373.139 49.536C372.107 49.536 371.279 50.052 370.655 51.084C370.055 52.092 369.755 53.436 369.755 55.116C369.755 57.108 370.199 58.704 371.087 59.904C371.975 61.08 373.391 61.668 375.335 61.668C375.983 61.668 376.535 61.596 376.991 61.452C377.471 61.308 378.071 61.068 378.791 60.732H378.827C378.899 60.732 378.959 60.768 379.007 60.84C379.079 60.912 379.091 60.972 379.043 61.02C378.155 61.836 377.267 62.448 376.379 62.856C375.491 63.24 374.471 63.432 373.319 63.432ZM397.864 62.568C397.96 62.568 398.008 62.64 398.008 62.784C398.008 62.928 397.96 63 397.864 63C397.24 63 396.736 62.988 396.352 62.964L394.264 62.928L392.104 62.964C391.744 62.988 391.252 63 390.628 63C390.58 63 390.556 62.928 390.556 62.784C390.556 62.64 390.58 62.568 390.628 62.568C391.372 62.568 391.876 62.4 392.14 62.064C392.428 61.704 392.572 61.044 392.572 60.084V54.9C392.572 53.604 392.332 52.644 391.852 52.02C391.372 51.396 390.628 51.084 389.62 51.084C389.044 51.084 388.444 51.204 387.82 51.444C387.22 51.684 386.692 52.008 386.236 52.416V60.084C386.236 61.044 386.368 61.704 386.632 62.064C386.92 62.4 387.436 62.568 388.18 62.568C388.276 62.568 388.324 62.64 388.324 62.784C388.324 62.928 388.276 63 388.18 63C387.556 63 387.052 62.988 386.668 62.964L384.58 62.928L382.42 62.964C382.06 62.988 381.568 63 380.944 63C380.896 63 380.872 62.928 380.872 62.784C380.872 62.64 380.896 62.568 380.944 62.568C381.688 62.568 382.192 62.4 382.456 62.064C382.744 61.704 382.888 61.044 382.888 60.084V41.796C382.888 40.956 382.804 40.356 382.636 39.996C382.492 39.636 382.228 39.456 381.844 39.456C381.508 39.456 381.052 39.588 380.476 39.852H380.44C380.368 39.852 380.296 39.792 380.224 39.672C380.175 39.528 380.175 39.444 380.224 39.42L385.479 36.936L385.66 36.9C385.78 36.9 385.9 36.96 386.02 37.08C386.164 37.176 386.236 37.272 386.236 37.368V51.624C387.94 49.656 389.764 48.672 391.708 48.672C393.004 48.672 394.024 49.092 394.768 49.932C395.536 50.748 395.92 51.828 395.92 53.172V60.084C395.92 61.044 396.052 61.704 396.316 62.064C396.604 62.4 397.12 62.568 397.864 62.568ZM412.472 60.624C412.52 60.624 412.568 60.672 412.616 60.768C412.688 60.864 412.7 60.936 412.652 60.984C411.764 61.848 410.864 62.472 409.952 62.856C409.04 63.24 408.044 63.432 406.964 63.432C405.452 63.432 404.144 63.12 403.04 62.496C401.936 61.848 401.096 60.996 400.52 59.94C399.944 58.86 399.656 57.708 399.656 56.484C399.656 55.092 400.016 53.808 400.736 52.632C401.456 51.432 402.44 50.496 403.688 49.824C404.936 49.128 406.328 48.78 407.864 48.78C409.352 48.78 410.492 49.104 411.284 49.752C412.076 50.376 412.472 51.24 412.472 52.344C412.472 53.04 412.34 53.388 412.076 53.388H409.88L403.4 53.46C403.328 53.916 403.292 54.42 403.292 54.972C403.292 57.036 403.772 58.668 404.732 59.868C405.716 61.068 407.06 61.668 408.764 61.668C409.364 61.668 409.988 61.584 410.636 61.416C411.284 61.248 411.872 60.996 412.4 60.66L412.472 60.624ZM406.532 49.5C405.812 49.5 405.188 49.788 404.66 50.364C404.132 50.94 403.748 51.732 403.508 52.74L408.62 52.632C408.548 50.544 407.852 49.5 406.532 49.5ZM417.799 50.832C417.799 51.528 418.039 52.128 418.519 52.632C419.023 53.136 419.743 53.664 420.679 54.216C421.591 54.744 422.263 55.164 422.695 55.476C423.151 55.764 423.559 56.184 423.919 56.736C424.279 57.264 424.459 57.912 424.459 58.68C424.459 59.496 424.255 60.264 423.847 60.984C423.439 61.704 422.827 62.292 422.011 62.748C421.195 63.18 420.223 63.396 419.095 63.396C417.775 63.396 416.527 63.072 415.351 62.424C415.207 62.28 415.135 62.136 415.135 61.992L415.063 58.428C415.063 58.356 415.123 58.32 415.243 58.32C415.387 58.296 415.471 58.308 415.495 58.356C415.879 59.556 416.515 60.576 417.403 61.416C418.291 62.256 419.191 62.676 420.103 62.676C420.607 62.676 421.003 62.52 421.291 62.208C421.603 61.896 421.759 61.44 421.759 60.84C421.759 59.952 421.507 59.256 421.003 58.752C420.499 58.224 419.755 57.684 418.771 57.132C417.931 56.676 417.295 56.304 416.863 56.016C416.431 55.728 416.047 55.32 415.711 54.792C415.375 54.264 415.207 53.616 415.207 52.848C415.207 51.432 415.711 50.4 416.719 49.752C417.727 49.08 418.963 48.744 420.427 48.744C420.979 48.744 421.471 48.78 421.903 48.852C422.359 48.924 422.863 49.068 423.415 49.284C423.631 49.356 423.739 49.488 423.739 49.68C423.739 50.28 423.727 50.748 423.703 51.084L423.667 52.884C423.667 52.956 423.595 52.992 423.451 52.992C423.307 52.992 423.235 52.956 423.235 52.884C423.235 52.428 423.043 51.936 422.659 51.408C422.275 50.856 421.771 50.388 421.147 50.004C420.547 49.62 419.923 49.428 419.275 49.428C418.291 49.428 417.799 49.896 417.799 50.832Z" fill="white"/>
<circle cx="275" cy="35" r="35" fill="#0C1077"/>
<path fill-rule="evenodd" clip-rule="evenodd" d="M285.963 40.2206L281.58 37.5125C282.88 34.7463 283.956 30.7543 283.92 27.0723C287.044 30.6047 287.781 35.9889 285.963 40.2206ZM279.017 35.9279L277.091 34.7387L274.532 33.1556L272.603 31.9649C274.438 29.5285 277.494 26.8662 280.843 25.4602C281.177 29.1408 280.282 33.1404 279.017 35.9279ZM270.043 30.3819L265.661 27.6737C268.621 23.8588 273.506 22.2483 278.015 23.4284C274.805 25.1045 272.093 27.5012 270.043 30.3819ZM283.452 22.6529C283.351 22.5842 283.253 22.5124 283.151 22.4452C283.028 22.3643 282.916 22.2743 282.792 22.1964C282.674 22.1231 282.549 22.0682 282.431 21.998C282.311 21.9293 282.19 21.8652 282.069 21.7995C275.107 18.0075 266.376 20.3737 262.237 27.3425C261.975 27.7836 261.74 28.234 261.527 28.6889L264.11 30.2857L268.461 32.974L271.02 34.5555L272.982 35.7676L266.33 45.6414C265.902 46.362 264.981 46.5925 264.273 46.1559C263.567 45.7193 263.341 44.7804 263.769 44.0584L264.544 42.7532C264.972 42.0326 264.748 41.0938 264.04 40.6572C263.333 40.2191 262.413 40.4496 261.985 41.1716L260.433 43.7821C259.577 45.2247 260.029 47.1023 261.443 47.9755L264.002 49.5571C265.417 50.4318 267.257 49.9708 268.114 48.5282L275.541 37.3491L277.503 38.5627L280.064 40.1443L284.413 42.8325L286.996 44.4278C287.038 44.4538 287.575 43.6035 287.837 43.1638C291.979 36.1874 289.986 27.1883 283.452 22.6529Z" fill="white"/>
<path d="M81.4 16.875C81.4 17.4083 81.4583 17.8 81.575 18.05C81.6917 18.2833 81.9083 18.45 82.225 18.55C82.5583 18.65 83.0833 18.7 83.8 18.7C83.85 18.7 83.875 18.75 83.875 18.85C83.875 18.95 83.85 19 83.8 19C83.1167 19 82.5833 18.9917 82.2 18.975L80.025 18.95L78.2 18.975C77.8667 18.9917 77.4167 19 76.85 19C76.8 19 76.775 18.95 76.775 18.85C76.775 18.75 76.8 18.7 76.85 18.7C77.3833 18.7 77.7667 18.6583 78 18.575C78.25 18.4917 78.4167 18.3333 78.5 18.1C78.5833 17.85 78.625 17.475 78.625 16.975V5.4C78.625 4.9 78.5833 4.53333 78.5 4.3C78.4167 4.06667 78.25 3.90833 78 3.825C77.75 3.725 77.3667 3.675 76.85 3.675C76.8 3.675 76.775 3.625 76.775 3.525C76.775 3.425 76.8 3.375 76.85 3.375L78.175 3.4C78.9417 3.43333 79.55 3.45 80 3.45C80.4 3.45 80.875 3.425 81.425 3.375C81.6417 3.35833 81.9167 3.34167 82.25 3.325C82.5833 3.30833 82.9667 3.3 83.4 3.3C85.1 3.3 86.4417 3.65833 87.425 4.375C88.4083 5.075 88.9 6.16667 88.9 7.65C88.9 8.68333 88.6333 9.55833 88.1 10.275C87.5667 10.9917 86.875 11.5333 86.025 11.9C85.1917 12.2667 84.3333 12.45 83.45 12.45C83 12.45 82.6083 12.4083 82.275 12.325C82.2417 12.325 82.225 12.2833 82.225 12.2C82.225 12.15 82.2333 12.1 82.25 12.05C82.2833 12 82.3167 11.9833 82.35 12C82.6 12.0667 82.8833 12.1 83.2 12.1C83.9667 12.1 84.6 11.7417 85.1 11.025C85.6167 10.3083 85.875 9.29167 85.875 7.975C85.875 6.65833 85.5917 5.64167 85.025 4.925C84.475 4.20833 83.6667 3.85 82.6 3.85C82.1333 3.85 81.8167 3.95833 81.65 4.175C81.4833 4.39167 81.4 4.81667 81.4 5.45V16.875ZM95.1574 19.325C94.1241 19.325 93.2158 19.0917 92.4324 18.625C91.6658 18.1417 91.0741 17.5 90.6574 16.7C90.2408 15.8833 90.0324 15 90.0324 14.05C90.0324 12.9667 90.3074 12.05 90.8574 11.3C91.4074 10.5333 92.1074 9.96667 92.9574 9.6C93.8074 9.21667 94.6824 9.025 95.5824 9.025C96.6158 9.025 97.5158 9.26667 98.2824 9.75C99.0491 10.2333 99.6324 10.875 100.032 11.675C100.449 12.4583 100.657 13.3 100.657 14.2C100.657 15.2 100.407 16.0917 99.9074 16.875C99.4074 17.6417 98.7324 18.2417 97.8824 18.675C97.0491 19.1083 96.1408 19.325 95.1574 19.325ZM95.9074 18.8C96.5574 18.8 97.0491 18.4833 97.3824 17.85C97.7324 17.2 97.9074 16.275 97.9074 15.075C97.9074 13.9083 97.7574 12.9083 97.4574 12.075C97.1574 11.2417 96.7658 10.6167 96.2824 10.2C95.7991 9.76667 95.2824 9.55 94.7324 9.55C93.3991 9.55 92.7324 10.7417 92.7324 13.125C92.7324 14.2417 92.8741 15.2333 93.1574 16.1C93.4408 16.95 93.8241 17.6167 94.3074 18.1C94.7908 18.5667 95.3241 18.8 95.9074 18.8ZM107.989 19.325C107.172 19.325 106.456 19.2333 105.839 19.05V23.85C105.839 24.35 105.889 24.7167 105.989 24.95C106.106 25.1833 106.314 25.3417 106.614 25.425C106.931 25.525 107.414 25.575 108.064 25.575C108.114 25.575 108.139 25.625 108.139 25.725C108.139 25.825 108.114 25.875 108.064 25.875C107.447 25.875 106.964 25.8667 106.614 25.85L104.639 25.825L103.164 25.85C102.914 25.8667 102.564 25.875 102.114 25.875C102.064 25.875 102.039 25.825 102.039 25.725C102.039 25.625 102.064 25.575 102.114 25.575C102.514 25.575 102.806 25.525 102.989 25.425C103.189 25.3417 103.322 25.1833 103.389 24.95C103.472 24.7167 103.514 24.35 103.514 23.85V12.275C103.514 11.7417 103.456 11.3583 103.339 11.125C103.222 10.8917 103.014 10.775 102.714 10.775C102.447 10.775 102.064 10.8917 101.564 11.125H101.514C101.464 11.125 101.422 11.0833 101.389 11C101.339 10.9167 101.331 10.8667 101.364 10.85L104.914 9.125C104.947 9.10833 104.989 9.1 105.039 9.1C105.206 9.1 105.356 9.24167 105.489 9.525C105.639 9.80833 105.739 10.1917 105.789 10.675C107.006 9.575 108.256 9.025 109.539 9.025C110.239 9.025 110.889 9.20833 111.489 9.575C112.106 9.94167 112.597 10.475 112.964 11.175C113.331 11.875 113.514 12.6917 113.514 13.625C113.514 14.9583 113.239 16.0583 112.689 16.925C112.139 17.775 111.439 18.3917 110.589 18.775C109.756 19.1417 108.889 19.325 107.989 19.325ZM107.889 10.425C107.139 10.425 106.456 10.6917 105.839 11.225V11.425V17.45C106.206 17.8667 106.589 18.1833 106.989 18.4C107.389 18.6 107.881 18.7 108.464 18.7C110.147 18.7 110.989 17.2667 110.989 14.4C110.989 13.1333 110.689 12.1583 110.089 11.475C109.506 10.775 108.772 10.425 107.889 10.425ZM126.756 17.375C126.806 17.375 126.848 17.4167 126.881 17.5C126.931 17.5833 126.931 17.6333 126.881 17.65L123.431 19.325C123.398 19.3417 123.356 19.35 123.306 19.35C123.14 19.35 122.99 19.175 122.856 18.825C122.74 18.4583 122.673 17.9667 122.656 17.35C121.556 18.65 120.365 19.3 119.081 19.3C118.165 19.3 117.44 19.0167 116.906 18.45C116.39 17.8667 116.131 17.1083 116.131 16.175V12.5C116.131 11.4167 115.873 10.875 115.356 10.875C115.173 10.875 114.965 10.9333 114.731 11.05H114.706C114.64 11.05 114.59 11.0083 114.556 10.925C114.523 10.825 114.531 10.7667 114.581 10.75L117.931 9.15L118.056 9.125C118.14 9.125 118.223 9.16667 118.306 9.25C118.406 9.31667 118.456 9.38333 118.456 9.45V14.975C118.456 16.775 119.148 17.675 120.531 17.675C120.898 17.675 121.265 17.6 121.631 17.45C122.015 17.2833 122.356 17.0583 122.656 16.775V12.5C122.656 11.4167 122.398 10.875 121.881 10.875C121.698 10.875 121.481 10.9333 121.231 11.05H121.206C121.156 11.05 121.115 11.0083 121.081 10.925C121.048 10.825 121.056 10.7667 121.106 10.75L124.456 9.15C124.49 9.13333 124.531 9.125 124.581 9.125C124.665 9.125 124.748 9.16667 124.831 9.25C124.931 9.31667 124.981 9.38333 124.981 9.45V16.1C124.981 16.6667 125.031 17.0667 125.131 17.3C125.248 17.5333 125.431 17.65 125.681 17.65C125.915 17.65 126.256 17.5583 126.706 17.375H126.756ZM127.778 19C127.745 19 127.728 18.95 127.728 18.85C127.728 18.75 127.745 18.7 127.778 18.7C128.295 18.7 128.645 18.5833 128.828 18.35C129.028 18.1 129.128 17.6417 129.128 16.975L129.153 4.275C129.153 3.69167 129.095 3.275 128.978 3.025C128.878 2.775 128.695 2.65 128.428 2.65C128.212 2.65 127.895 2.74167 127.478 2.925H127.453C127.403 2.925 127.353 2.88333 127.303 2.8C127.27 2.7 127.27 2.64167 127.303 2.625L130.978 0.899999L131.078 0.874999C131.162 0.874999 131.253 0.916666 131.353 0.999999C131.453 1.06667 131.503 1.13333 131.503 1.2V16.975C131.503 17.6417 131.595 18.1 131.778 18.35C131.962 18.5833 132.312 18.7 132.828 18.7C132.895 18.7 132.928 18.75 132.928 18.85C132.928 18.95 132.895 19 132.828 19C132.412 19 132.078 18.9917 131.828 18.975L130.303 18.95L128.803 18.975C128.553 18.9917 128.212 19 127.778 19ZM145.718 17.375C145.768 17.375 145.809 17.4167 145.843 17.5C145.893 17.5833 145.893 17.6333 145.843 17.65L142.393 19.325C142.359 19.3417 142.318 19.35 142.268 19.35C142.118 19.35 141.976 19.2 141.843 18.9C141.726 18.6 141.651 18.1917 141.618 17.675C141.068 18.1917 140.518 18.6 139.968 18.9C139.418 19.1833 138.809 19.325 138.143 19.325C137.459 19.325 136.826 19.1583 136.243 18.825C135.676 18.475 135.226 17.9667 134.893 17.3C134.559 16.6333 134.393 15.8333 134.393 14.9C134.393 13.7167 134.668 12.6833 135.218 11.8C135.768 10.9 136.493 10.2167 137.393 9.75C138.293 9.28333 139.259 9.05 140.293 9.05C141.193 9.05 142.001 9.26667 142.718 9.7C143.101 9.53333 143.426 9.31667 143.693 9.05C143.709 9.03333 143.734 9.025 143.768 9.025C143.801 9.025 143.834 9.04167 143.868 9.075C143.918 9.09167 143.943 9.11667 143.943 9.15V16.275C143.943 16.775 143.993 17.1333 144.093 17.35C144.209 17.55 144.393 17.65 144.643 17.65C144.859 17.65 145.201 17.5583 145.668 17.375H145.718ZM139.418 18C140.084 18 140.809 17.7333 141.593 17.2V16.95V11.8C141.593 11.15 141.409 10.6167 141.043 10.2C140.693 9.78333 140.226 9.575 139.643 9.575C138.809 9.575 138.151 9.99167 137.668 10.825C137.201 11.6583 136.968 12.7333 136.968 14.05C136.968 15.3 137.176 16.275 137.593 16.975C138.026 17.6583 138.634 18 139.418 18ZM153.324 9.1C153.707 9.1 154.074 9.24167 154.424 9.525C154.79 9.79167 154.974 10.1167 154.974 10.5C154.974 10.85 154.865 11.1417 154.649 11.375C154.432 11.5917 154.149 11.7 153.799 11.7C153.549 11.7 153.34 11.65 153.174 11.55C153.024 11.45 152.865 11.3 152.699 11.1C152.549 10.9333 152.415 10.8167 152.299 10.75C152.199 10.6667 152.074 10.625 151.924 10.625C151.757 10.625 151.574 10.6917 151.374 10.825C151.19 10.9417 150.899 11.2 150.499 11.6V16.975C150.499 17.6417 150.657 18.1 150.974 18.35C151.29 18.5833 151.874 18.7 152.724 18.7C152.79 18.7 152.824 18.75 152.824 18.85C152.824 18.95 152.79 19 152.724 19C152.14 19 151.682 18.9917 151.349 18.975L149.324 18.95L147.849 18.975C147.599 18.9917 147.257 19 146.824 19C146.774 19 146.749 18.95 146.749 18.85C146.749 18.75 146.774 18.7 146.824 18.7C147.34 18.7 147.69 18.5833 147.874 18.35C148.057 18.1 148.149 17.6417 148.149 16.975V12.275C148.149 11.7583 148.082 11.3833 147.949 11.15C147.832 10.9 147.64 10.775 147.374 10.775C147.09 10.775 146.69 10.8917 146.174 11.125H146.124C146.074 11.125 146.032 11.0833 145.999 11C145.982 10.9167 145.99 10.8667 146.024 10.85L149.499 9.15C149.599 9.11667 149.657 9.1 149.674 9.1C149.857 9.1 150.024 9.275 150.174 9.625C150.34 9.95833 150.44 10.4167 150.474 11C151.157 10.3 151.715 9.80833 152.149 9.525C152.599 9.24167 152.99 9.1 153.324 9.1ZM91.156 40.104C92.212 40.104 93.316 40.2 94.468 40.392C95.62 40.56 96.52 40.788 97.168 41.076C97.384 41.148 97.516 41.244 97.564 41.364C97.636 41.46 97.696 41.64 97.744 41.904L98.176 46.908C98.176 46.98 98.116 47.028 97.996 47.052C97.876 47.076 97.804 47.04 97.78 46.944C96.964 45.048 95.872 43.584 94.504 42.552C93.136 41.52 91.552 41.004 89.752 41.004C87.376 41.004 85.54 41.88 84.244 43.632C82.948 45.384 82.3 47.736 82.3 50.688C82.3 52.896 82.648 54.912 83.344 56.736C84.064 58.56 85.06 60.012 86.332 61.092C87.628 62.148 89.092 62.676 90.724 62.676C92.26 62.676 93.628 62.172 94.828 61.164C96.052 60.132 97.144 58.572 98.104 56.484C98.128 56.388 98.2 56.352 98.32 56.376C98.464 56.4 98.536 56.448 98.536 56.52L97.996 61.416C97.948 61.704 97.888 61.896 97.816 61.992C97.768 62.064 97.636 62.148 97.42 62.244C95.284 63.036 93.088 63.432 90.832 63.432C87.904 63.432 85.456 62.856 83.488 61.704C81.52 60.528 80.068 59.052 79.132 57.276C78.22 55.476 77.764 53.604 77.764 51.66C77.764 49.38 78.376 47.364 79.6 45.612C80.848 43.86 82.492 42.504 84.532 41.544C86.596 40.584 88.804 40.104 91.156 40.104ZM104.942 45.18C104.246 45.18 103.706 44.988 103.322 44.604C102.938 44.22 102.746 43.68 102.746 42.984C102.746 42.36 102.938 41.868 103.322 41.508C103.73 41.124 104.27 40.932 104.942 40.932C105.614 40.932 106.13 41.112 106.49 41.472C106.85 41.832 107.03 42.336 107.03 42.984C107.03 43.68 106.85 44.22 106.49 44.604C106.13 44.988 105.614 45.18 104.942 45.18ZM101.486 63C101.414 63 101.378 62.928 101.378 62.784C101.378 62.64 101.414 62.568 101.486 62.568C102.23 62.568 102.734 62.4 102.998 62.064C103.262 61.704 103.394 61.044 103.394 60.084V53.64C103.394 52.824 103.31 52.236 103.142 51.876C102.974 51.516 102.698 51.336 102.314 51.336C102.002 51.336 101.558 51.468 100.982 51.732H100.946C100.85 51.732 100.778 51.672 100.73 51.552C100.682 51.408 100.694 51.324 100.766 51.3L106.202 48.78L106.31 48.744C106.43 48.744 106.55 48.804 106.67 48.924C106.79 49.044 106.85 49.152 106.85 49.248V50.04C106.802 51 106.778 52.176 106.778 53.568V60.084C106.778 61.044 106.91 61.704 107.174 62.064C107.462 62.4 107.978 62.568 108.722 62.568C108.794 62.568 108.83 62.64 108.83 62.784C108.83 62.928 108.794 63 108.722 63C108.098 63 107.606 62.988 107.246 62.964L105.086 62.928L102.962 62.964C102.602 62.988 102.11 63 101.486 63ZM121.203 60.48C121.299 60.48 121.371 60.528 121.419 60.624C121.491 60.72 121.491 60.792 121.419 60.84C120.531 61.728 119.667 62.388 118.827 62.82C117.987 63.228 117.099 63.432 116.163 63.432C115.107 63.432 114.207 63.18 113.463 62.676C112.719 62.172 112.347 61.32 112.347 60.12V52.128C112.347 51.384 112.215 50.868 111.951 50.58C111.687 50.292 111.207 50.148 110.511 50.148C110.487 50.148 110.451 50.112 110.403 50.04C110.379 49.968 110.367 49.896 110.367 49.824C110.367 49.728 110.379 49.656 110.403 49.608C110.427 49.536 110.463 49.5 110.511 49.5C111.735 49.452 112.719 49.188 113.463 48.708C114.231 48.228 114.819 47.496 115.227 46.512C115.275 46.416 115.371 46.368 115.515 46.368C115.683 46.368 115.767 46.416 115.767 46.512V49.392C117.159 49.368 118.719 49.26 120.447 49.068C120.495 49.068 120.543 49.164 120.591 49.356C120.663 49.524 120.699 49.716 120.699 49.932C120.699 50.172 120.651 50.412 120.555 50.652C120.483 50.868 120.399 50.964 120.303 50.94C118.743 50.604 117.231 50.424 115.767 50.4V58.932C115.767 59.844 115.995 60.516 116.451 60.948C116.931 61.38 117.555 61.596 118.323 61.596C119.283 61.596 120.219 61.236 121.131 60.516L121.203 60.48ZM126.493 45.18C125.797 45.18 125.257 44.988 124.873 44.604C124.489 44.22 124.297 43.68 124.297 42.984C124.297 42.36 124.489 41.868 124.873 41.508C125.281 41.124 125.821 40.932 126.493 40.932C127.165 40.932 127.681 41.112 128.041 41.472C128.401 41.832 128.581 42.336 128.581 42.984C128.581 43.68 128.401 44.22 128.041 44.604C127.681 44.988 127.165 45.18 126.493 45.18ZM123.037 63C122.965 63 122.929 62.928 122.929 62.784C122.929 62.64 122.965 62.568 123.037 62.568C123.781 62.568 124.285 62.4 124.549 62.064C124.813 61.704 124.945 61.044 124.945 60.084V53.64C124.945 52.824 124.861 52.236 124.693 51.876C124.525 51.516 124.249 51.336 123.865 51.336C123.553 51.336 123.109 51.468 122.533 51.732H122.497C122.401 51.732 122.329 51.672 122.281 51.552C122.233 51.408 122.245 51.324 122.317 51.3L127.753 48.78L127.861 48.744C127.981 48.744 128.101 48.804 128.221 48.924C128.341 49.044 128.401 49.152 128.401 49.248V50.04C128.353 51 128.329 52.176 128.329 53.568V60.084C128.329 61.044 128.461 61.704 128.725 62.064C129.013 62.4 129.529 62.568 130.273 62.568C130.345 62.568 130.381 62.64 130.381 62.784C130.381 62.928 130.345 63 130.273 63C129.649 63 129.157 62.988 128.797 62.964L126.637 62.928L124.513 62.964C124.153 62.988 123.661 63 123.037 63ZM145.058 60.624C145.106 60.624 145.154 60.672 145.202 60.768C145.274 60.864 145.286 60.936 145.238 60.984C144.35 61.848 143.45 62.472 142.538 62.856C141.626 63.24 140.63 63.432 139.55 63.432C138.038 63.432 136.73 63.12 135.626 62.496C134.522 61.848 133.682 60.996 133.106 59.94C132.53 58.86 132.242 57.708 132.242 56.484C132.242 55.092 132.602 53.808 133.322 52.632C134.042 51.432 135.026 50.496 136.274 49.824C137.522 49.128 138.914 48.78 140.45 48.78C141.938 48.78 143.078 49.104 143.87 49.752C144.662 50.376 145.058 51.24 145.058 52.344C145.058 53.04 144.926 53.388 144.662 53.388H142.466L135.986 53.46C135.914 53.916 135.878 54.42 135.878 54.972C135.878 57.036 136.358 58.668 137.318 59.868C138.302 61.068 139.646 61.668 141.35 61.668C141.95 61.668 142.574 61.584 143.222 61.416C143.87 61.248 144.458 60.996 144.986 60.66L145.058 60.624ZM139.118 49.5C138.398 49.5 137.774 49.788 137.246 50.364C136.718 50.94 136.334 51.732 136.094 52.74L141.206 52.632C141.134 50.544 140.438 49.5 139.118 49.5ZM150.385 50.832C150.385 51.528 150.625 52.128 151.105 52.632C151.609 53.136 152.329 53.664 153.265 54.216C154.177 54.744 154.849 55.164 155.281 55.476C155.737 55.764 156.145 56.184 156.505 56.736C156.865 57.264 157.045 57.912 157.045 58.68C157.045 59.496 156.841 60.264 156.433 60.984C156.025 61.704 155.413 62.292 154.597 62.748C153.781 63.18 152.809 63.396 151.681 63.396C150.361 63.396 149.113 63.072 147.937 62.424C147.793 62.28 147.721 62.136 147.721 61.992L147.649 58.428C147.649 58.356 147.709 58.32 147.829 58.32C147.973 58.296 148.057 58.308 148.081 58.356C148.465 59.556 149.101 60.576 149.989 61.416C150.877 62.256 151.777 62.676 152.689 62.676C153.193 62.676 153.589 62.52 153.877 62.208C154.189 61.896 154.345 61.44 154.345 60.84C154.345 59.952 154.093 59.256 153.589 58.752C153.085 58.224 152.341 57.684 151.357 57.132C150.517 56.676 149.881 56.304 149.449 56.016C149.017 55.728 148.633 55.32 148.297 54.792C147.961 54.264 147.793 53.616 147.793 52.848C147.793 51.432 148.297 50.4 149.305 49.752C150.313 49.08 151.549 48.744 153.013 48.744C153.565 48.744 154.057 48.78 154.489 48.852C154.945 48.924 155.449 49.068 156.001 49.284C156.217 49.356 156.325 49.488 156.325 49.68C156.325 50.28 156.313 50.748 156.289 51.084L156.253 52.884C156.253 52.956 156.181 52.992 156.037 52.992C155.893 52.992 155.821 52.956 155.821 52.884C155.821 52.428 155.629 51.936 155.245 51.408C154.861 50.856 154.357 50.388 153.733 50.004C153.133 49.62 152.509 49.428 151.861 49.428C150.877 49.428 150.385 49.896 150.385 50.832Z" fill="white"/>
<circle cx="35" cy="35" r="35" fill="white"/>
<path fill-rule="evenodd" clip-rule="evenodd" d="M37.5 30.8285C37.5 32.486 36.1575 33.8285 34.5 33.8285C32.8425 33.8285 31.5 32.486 31.5 30.8285C31.5 29.171 32.8425 27.8285 34.5 27.8285C36.1575 27.8285 37.5 29.171 37.5 30.8285ZM34.5 45.5C34.5 45.5 27 35 27 30.5C27 26.3645 30.3645 23 34.5 23C38.6355 23 42 26.3645 42 30.5C42 35 34.5 45.5 34.5 45.5ZM34.5 20C28.701 20 24 24.701 24 30.5C24 36.299 34.5 50 34.5 50C34.5 50 45 36.299 45 30.5C45 24.701 40.299 20 34.5 20Z" fill="#0C1077"/>
</svg>
